<svg width="178" height="61" viewBox="0 0 178 61" fill="none" xmlns="http://www.w3.org/2000/svg">
<path d="M69.7516 38.2605L63.8988 21.9934H60.7504V0H0V60.7528H60.7504V31.3837L66.6653 46.1422H72.7472L82.4263 21.9934H75.6521L69.7516 38.2605Z" fill="black"/>
<path d="M91.048 21.9934H84.5029V46.1422H91.048V21.9934Z" fill="black"/>
<path d="M101.56 29.0445C101.56 27.7078 102.754 26.6933 104.878 26.6933C107.227 26.6933 108.38 28.0778 108.518 29.5982H114.832C114.648 26.0488 112.158 21.4396 104.924 21.4396C98.9801 21.4396 95.2469 25.0344 95.2469 29.4121C95.2469 38.9981 108.657 35.1742 108.657 39.2296C108.657 40.5639 107.365 41.4399 104.878 41.4399C102.16 41.4399 100.961 39.9194 100.868 38.3059H94.2324C94.5547 42.8244 97.135 46.6936 104.694 46.6936C111.237 46.6936 114.925 43.285 114.925 38.9527C114.925 29.0445 101.56 33.0999 101.56 29.0445Z" fill="black"/>
<path d="M124.778 21.9934H118.233V46.1422H124.778V21.9934Z" fill="black"/>
<path d="M140.317 21.4396C132.576 21.4396 127.645 27.2017 127.645 34.0666C127.645 40.9315 132.576 46.6936 140.317 46.6936C148.058 46.6936 152.992 40.9339 152.992 34.0666C152.992 27.1994 148.06 21.4396 140.317 21.4396ZM140.317 40.9339C136.863 40.9339 134.19 38.3989 134.19 34.0666C134.19 29.7343 136.858 27.2017 140.317 27.2017C143.776 27.2017 146.447 29.7367 146.447 34.0666C146.447 38.3966 143.78 40.9339 140.317 40.9339Z" fill="black"/>
<path d="M169.106 21.4396C165.511 21.4396 163.024 22.8718 161.916 24.9437V21.9934H155.88V46.1422H162.425V32.317C162.425 29.0898 164.175 27.0657 167.354 27.0657C170.259 27.0657 171.457 29.0015 171.457 31.811V46.1446H178V31.071C178 25.3113 174.913 21.4396 169.106 21.4396Z" fill="black"/>
<path d="M21.2798 19.1314C21.9682 19.1234 22.6389 18.912 23.2074 18.5237C23.7759 18.1354 24.2169 17.5876 24.4748 16.9493C24.7327 16.311 24.7961 15.6106 24.6569 14.9364C24.5177 14.2621 24.1822 13.6441 23.6925 13.1601C23.2029 12.6761 22.5811 12.3478 21.9053 12.2164C21.2295 12.085 20.5299 12.1564 19.8946 12.4217C19.2593 12.687 18.7166 13.1342 18.3349 13.7072C17.9532 14.2802 17.7496 14.9532 17.7495 15.6417C17.7511 16.103 17.8437 16.5594 18.0222 16.9847C18.2007 17.4101 18.4614 17.7959 18.7895 18.1202C19.1175 18.4445 19.5064 18.7008 19.9337 18.8743C20.3611 19.0478 20.8186 19.1352 21.2798 19.1314Z" fill="white"/>
<path d="M13.9302 37.8261C13.7297 38.6871 13.6249 39.5677 13.6175 40.4517C13.6175 43.5261 15.2883 45.567 18.8282 45.567C21.7665 45.567 24.1487 43.8221 25.8625 41.0031L24.8171 45.2065H30.6508L33.9925 31.8396C34.8208 28.4429 36.4368 26.6766 38.8858 26.6766C40.812 26.6766 42.0103 27.8701 42.0103 29.8536C42.0192 30.4886 41.9315 31.1212 41.7501 31.7298L40.0315 37.8953C39.7863 38.7415 39.6634 39.6184 39.6663 40.4994C39.6663 43.4187 41.3849 45.5526 44.9797 45.5526C48.0541 45.5526 50.5031 43.5738 51.8565 38.8333L49.565 37.9478C48.4193 41.1248 47.4168 41.6977 46.6482 41.6977C45.8796 41.6977 45.4547 41.1773 45.4547 40.1366C45.4772 39.5896 45.5645 39.0471 45.7149 38.5207L47.3857 32.5318C47.7619 31.3 47.9557 30.0197 47.961 28.7318C47.961 24.2514 45.2518 21.9122 41.9673 21.9122C38.8953 21.9122 35.7613 24.6859 34.205 27.6027L35.3531 22.3658H26.433L25.1823 26.9797H29.3523L26.7839 37.2556C24.7693 41.7359 21.0552 41.8075 20.6017 41.7049C19.8379 41.533 19.3509 41.2418 19.3509 40.2512C19.3742 39.4436 19.4969 38.6419 19.7161 37.8642L23.6236 22.3634H13.7249L12.4741 26.9773H16.5892L13.9302 37.8261Z" fill="white"/>
</svg>
