<svg width="103" height="41" viewBox="0 0 103 41" fill="none" xmlns="http://www.w3.org/2000/svg">
<g clip-path="url(#clip0_525_27)">
<path d="M0 0V2.80512H19.9514V0H0ZM22.7782 0V2.80512H51.2099C51.2099 2.80512 48.3058 0 44.4594 0H22.7782ZM56.7874 0V2.80512H73.9881L72.9672 0H56.7874ZM86.3202 0L85.2992 2.80512H102.344V0H86.3202ZM0 5.45526V8.26037H19.9514V5.45526H0ZM22.7782 5.45925V8.26047H54.5091C54.5091 8.26047 54.1386 6.10152 53.4921 5.45925H22.7782ZM56.7874 5.45925V8.26047H75.874L74.929 5.45925H56.7874ZM84.2782 5.45925L83.3332 8.26047H102.344V5.45925H84.2782ZM5.73354 10.9105V13.7196H14.374V10.9105H5.73354ZM28.5118 10.9105V13.7196H37.1523V10.9105H28.5118ZM45.5564 10.9105V13.7196H54.1969C54.1969 13.7196 54.7455 12.2361 54.7455 10.9105H45.5564ZM62.521 10.9105V13.7196H77.8399L76.8189 10.9105H62.521ZM82.3964 10.9105L81.3714 13.7196H96.7664V10.9105H82.3964ZM5.73354 16.3699V19.175H14.374V16.3699H5.73354ZM28.5118 16.3699V19.175H50.5813C50.5813 19.175 52.4275 17.7357 53.0157 16.3699H28.5118ZM62.521 16.3699V19.175H71.1614V17.6135L71.71 19.175H87.5375L88.126 17.6135V19.175H96.7665V16.3699H80.5465L79.6858 18.7458L78.8209 16.3699H62.521ZM5.73354 21.8251V24.6302H14.374V21.8251H5.73354ZM28.5118 21.8251V24.6302H53.0157C52.4274 23.2689 50.5813 21.8251 50.5813 21.8251H28.5118ZM62.521 21.8251V24.6302H71.1614V21.8251H62.521ZM72.7309 21.8251L73.7759 24.6302H85.6435L86.6365 21.8251H72.7309ZM88.1259 21.8251V24.6302H96.7664V21.8251H88.1259ZM5.73354 27.2804V30.0854H14.374V27.2804H5.73354ZM28.5118 27.2804V30.0854H37.1523V27.2804H28.5118ZM45.5564 27.2804V30.0854H54.7454C54.7454 28.7616 54.1968 27.2804 54.1968 27.2804H45.5564ZM62.521 27.2804V30.0854H71.1614V27.2804H62.521ZM74.6929 27.2804L75.7059 30.0854H83.6616L84.6826 27.2804H74.6929ZM88.1259 27.2804V30.0854H96.7664V27.2804H88.1259ZM0.156108 32.7356V35.5447H20.1075V32.7356H0.156108ZM22.7782 32.7356V35.5447H53.4921C54.1386 34.9016 54.5091 32.7356 54.5091 32.7356H22.7782ZM56.9436 32.7356V35.5447H71.1614V32.7356H56.9436ZM76.6587 32.7356L77.6997 35.5447H81.7477L82.7246 32.7356H76.6587ZM88.1259 32.7356V35.5447H102.5V32.7356H88.1259ZM0.156108 38.1949V41H20.1075V38.1949H0.156108ZM22.7782 38.1949V40.996H44.4594C48.3058 40.996 51.2099 38.1949 51.2099 38.1949H22.7782ZM56.9436 38.1949V41H71.1614V38.1949H56.9436ZM78.6327 38.1949L79.6337 40.9921L79.8059 40.996L80.8229 38.1949H78.6327ZM88.1259 38.1949V41H102.5V38.1949H88.1259Z" fill="black"/>
</g>
<defs>
<clipPath id="clip0_525_27">
<rect width="102.5" height="41" fill="white"/>
</clipPath>
</defs>
</svg>
