<svg width="209" height="47" viewBox="0 0 209 47" fill="none" xmlns="http://www.w3.org/2000/svg">
<g clip-path="url(#clip0_525_30)">
<path fill-rule="evenodd" clip-rule="evenodd" d="M65.266 7.36456C64.5027 4.50142 62.244 2.24303 59.3704 1.46895C54.1746 0.0797119 33.3276 0.0797119 33.3276 0.0797119C33.3276 0.0797119 12.4913 0.0797119 7.28485 1.46895C4.42198 2.23234 2.16331 4.49101 1.38923 7.36456C-1.30658e-07 12.5603 0 23.4079 0 23.4079C0 23.4079 -1.30658e-07 34.2557 1.38923 39.4515C2.15263 42.3146 4.4113 44.573 7.28485 45.3471C12.4913 46.7363 33.3276 46.7363 33.3276 46.7363C33.3276 46.7363 54.1746 46.7363 59.3704 45.3471C62.2336 44.5837 64.492 42.325 65.266 39.4515C66.6553 34.2557 66.6553 23.4082 66.6553 23.4082C66.6553 23.4082 66.6553 12.5603 65.266 7.36456Z" fill="black"/>
<path fill-rule="evenodd" clip-rule="evenodd" d="M26.6685 33.4074L43.9843 23.4079L26.6685 13.4087V33.4074Z" fill="white"/>
<path fill-rule="evenodd" clip-rule="evenodd" d="M96.7488 42.5264C95.4338 41.6359 94.4901 40.2574 93.9388 38.3807C93.3872 36.5037 93.1009 34.0118 93.1009 30.8941V26.6527C93.1009 23.5035 93.419 20.9799 94.0552 19.0709C94.6915 17.1624 95.6883 15.7734 97.0348 14.9037C98.3816 14.0343 100.153 13.589 102.347 13.589C104.511 13.589 106.239 14.0343 107.543 14.9251C108.847 15.8156 109.802 17.2048 110.406 19.0922C111.011 20.9799 111.308 23.5035 111.308 26.642V30.8837C111.308 34.0011 111.011 36.5037 110.427 38.3911C109.844 40.2785 108.89 41.6677 107.565 42.5371C106.25 43.4066 104.458 43.8524 102.199 43.8524C99.8873 43.8625 98.0635 43.4172 96.7488 42.5264ZM104.139 37.9458C104.5 36.9914 104.691 35.4326 104.691 33.2802V24.1716C104.691 22.0718 104.511 20.545 104.139 19.5696C103.779 18.6045 103.132 18.1167 102.21 18.1167C101.319 18.1167 100.693 18.6045 100.322 19.5696C99.9615 20.5343 99.7708 22.0718 99.7708 24.1716V33.2802C99.7708 35.4433 99.9404 37.0021 100.29 37.9458C100.64 38.9002 101.277 39.3772 102.199 39.3772C103.132 39.3772 103.768 38.9002 104.139 37.9458ZM197.983 30.9684V32.4426C197.983 34.3193 198.036 35.7189 198.152 36.6626C198.258 37.5959 198.492 38.285 198.842 38.7095C199.191 39.1334 199.732 39.3561 200.464 39.3561C201.45 39.3561 202.129 38.9744 202.489 38.2108C202.85 37.4474 203.051 36.1749 203.083 34.3935L208.756 34.7223C208.788 34.9766 208.798 35.3265 208.798 35.7718C208.798 38.476 208.056 40.4905 206.582 41.8266C205.108 43.1627 203.019 43.8307 200.315 43.8307C197.071 43.8307 194.802 42.8128 193.497 40.7769C192.193 38.741 191.546 35.6022 191.546 31.3397V26.2392C191.546 21.8493 192.225 18.6574 193.571 16.6324C194.918 14.6176 197.23 13.6101 200.506 13.6101C202.765 13.6101 204.493 14.0239 205.702 14.8508C206.911 15.6778 207.759 16.9607 208.258 18.7105C208.745 20.4601 209 22.878 209 25.9529V30.958H197.983V30.9684ZM198.82 18.6681C198.491 19.0818 198.269 19.7603 198.152 20.6935C198.035 21.6266 197.983 23.0583 197.983 24.9561V27.0558H202.797V24.9561C202.797 23.0791 202.733 21.6583 202.606 20.6935C202.479 19.7285 202.245 19.0393 201.917 18.647C201.588 18.2546 201.068 18.0532 200.368 18.0532C199.669 18.0425 199.149 18.2546 198.82 18.6681ZM80.737 30.4171L73.251 3.38813H79.7826L82.4018 15.6356C83.0699 18.6576 83.5576 21.2238 83.8757 23.355H84.0665C84.2892 21.8279 84.777 19.2725 85.5406 15.6778L88.255 3.37744H94.7868L87.2159 30.4171V43.3855H80.737V30.4171ZM132.547 14.1617V43.3748H127.404L126.831 39.8014H126.693C125.294 42.5053 123.194 43.8521 120.405 43.8521C118.465 43.8521 117.034 43.2159 116.111 41.9433C115.189 40.6708 114.733 38.6881 114.733 35.9842V14.1617H121.307V35.6129C121.307 36.9172 121.445 37.8504 121.731 38.4018C122.017 38.9531 122.495 39.2394 123.163 39.2394C123.735 39.2394 124.287 39.0695 124.806 38.7199C125.326 38.37 125.718 37.9244 125.973 37.3838V14.1614L132.547 14.1617ZM166.288 14.1617V43.3748H161.145L160.572 39.8014H160.435C159.035 42.5053 156.935 43.8521 154.147 43.8521C152.206 43.8521 150.775 43.2159 149.852 41.9433C148.93 40.6708 148.474 38.6881 148.474 35.9842V14.1617H155.048V35.6129C155.048 36.9172 155.186 37.8504 155.472 38.4018C155.758 38.9531 156.236 39.2394 156.904 39.2394C157.476 39.2394 158.028 39.0695 158.547 38.7199C159.067 38.37 159.459 37.9244 159.714 37.3838V14.1614L166.288 14.1617Z" fill="black"/>
<path fill-rule="evenodd" clip-rule="evenodd" d="M150.425 8.67957H143.893V43.3748H137.456V8.67957H130.924V3.38842H150.414V8.67957H150.425ZM188.057 18.8377C187.654 16.9928 187.018 15.6567 186.127 14.8297C185.237 14.0025 184.017 13.589 182.458 13.589C181.25 13.589 180.126 13.9282 179.076 14.6177C178.026 15.2961 177.22 16.1976 176.648 17.3109H176.595V1.91425H170.254V43.3855H175.683L176.351 40.618H176.489C176.998 41.6041 177.761 42.3782 178.779 42.9506C179.797 43.5233 180.921 43.8097 182.162 43.8097C184.388 43.8097 186.021 42.781 187.071 40.7344C188.121 38.6881 188.641 35.4858 188.641 31.1276V26.5042C188.651 23.2383 188.45 20.6826 188.057 18.8377ZM182.024 30.7563C182.024 32.8879 181.939 34.5525 181.759 35.7614C181.589 36.9704 181.292 37.8291 180.879 38.3382C180.465 38.847 179.914 39.1016 179.214 39.1016C178.673 39.1016 178.175 38.9745 177.708 38.7199C177.252 38.4654 176.87 38.0837 176.584 37.5745V20.9799C176.807 20.1845 177.189 19.5378 177.729 19.029C178.27 18.5198 178.853 18.2653 179.489 18.2653C180.157 18.2653 180.677 18.5303 181.038 19.0498C181.398 19.5696 181.653 20.4601 181.801 21.6901C181.939 22.9309 182.013 24.6911 182.013 26.9813V30.7563H182.024Z" fill="black"/>
</g>
<defs>
<clipPath id="clip0_525_30">
<rect width="209" height="46.816" fill="white"/>
</clipPath>
</defs>
</svg>
