<svg width="138" height="74" viewBox="0 0 138 74" fill="none" xmlns="http://www.w3.org/2000/svg">
<g clip-path="url(#clip0_525_44)">
<path d="M74.0859 3.34318C73.6362 3.41255 73.2039 5.06846 72.3347 5.93109C71.6991 6.55367 70.9057 6.51472 70.4842 7.2844C70.3242 7.57195 70.376 8.06278 70.1945 8.53406C69.8399 9.47661 68.5904 9.56087 68.5904 10.5878C68.5861 11.6969 69.6324 11.9087 70.5382 12.6956C71.2452 13.3291 71.3144 13.7657 72.1704 14.0727C72.9013 14.3214 73.9886 13.5085 74.9679 13.8003C75.7722 14.0404 76.5417 14.2133 76.7235 15.0391C76.8833 15.8001 76.7126 16.9804 75.7376 16.8443C75.4089 16.8075 73.9842 16.3276 72.2332 16.5135C70.1209 16.7535 67.7104 17.443 67.4748 19.7975C67.3451 21.1141 68.9729 22.6663 70.5447 22.3507C71.6321 22.1365 71.1176 20.8548 71.71 20.232C72.486 19.4344 76.8833 23.0165 80.9715 23.0165C82.6924 23.0165 83.9722 22.582 85.2435 21.2503C85.3622 21.1487 85.5072 20.9303 85.6909 20.9173C85.8639 20.9303 86.1665 21.101 86.266 21.1746C89.5586 23.8207 92.0469 29.1282 104.147 29.1909C105.848 29.1995 107.788 30.0125 109.37 31.4565C110.782 32.7624 111.608 34.7923 112.41 36.8526C113.62 39.9442 115.791 42.9514 119.081 46.298C119.261 46.4774 121.97 48.5831 122.186 48.7409C122.22 48.7625 122.419 49.2381 122.35 49.504C122.27 51.5103 121.978 57.3451 126.328 57.6089C127.392 57.6629 127.113 56.915 127.113 56.4004C127.111 55.3843 126.925 54.3747 127.461 53.3348C128.194 51.9038 125.906 51.2443 125.974 48.1506C126.021 45.8439 124.084 46.2373 123.1 44.4797C122.534 43.4615 122.03 42.9211 122.067 41.6757C122.287 34.667 120.575 30.0621 119.721 28.9315C119.056 28.0775 118.504 27.7382 119.114 27.3425C122.744 24.9449 123.567 22.7138 123.567 22.7138C125.498 18.1761 127.234 14.0316 129.627 12.2071C130.109 11.8308 131.346 10.9078 132.105 10.5445C134.338 9.49166 135.514 8.85403 136.163 8.22261C137.189 7.22171 138 5.13549 137.016 3.87079C135.793 2.30985 133.676 3.54864 132.742 4.10201C126.069 8.06278 125.085 15.0498 122.774 19.0624C120.93 22.2684 117.931 24.6228 115.251 24.8152C113.24 24.9643 111.074 24.5579 108.916 23.611C103.669 21.3108 100.798 18.3404 100.122 17.8151C98.7119 16.7276 87.7684 5.9851 78.9025 5.54625C78.9025 5.54625 77.8023 3.34334 77.5254 3.30656C76.8768 3.22432 76.2132 4.62309 75.7376 4.78541C75.2901 4.93438 74.5378 3.26963 74.0859 3.34318ZM35.0551 67.4586C34.2206 67.439 33.5116 66.7537 33.5116 65.9063L33.5137 38.2513H24.3992V68.7361C24.3992 70.23 25.6097 71.4494 27.0949 71.4494H43.026C44.5219 71.4494 45.7176 70.23 45.7176 68.7361V38.2513H36.6117L36.603 65.9063C36.603 66.7537 35.8938 67.439 35.0551 67.4586ZM65.5723 38.2513H51.7773C50.1451 38.2513 48.8156 39.5787 48.8156 41.2283V71.4493H57.9385V43.7276C57.945 42.878 58.6325 42.2056 59.48 42.2056C60.3318 42.2056 61.0149 42.8628 61.0343 43.7038V71.4494H70.1208V43.7035C70.1316 42.8626 70.8147 42.2054 71.6643 42.2054C72.5076 42.2054 73.2037 42.8778 73.2102 43.7274V71.4494H82.3333V41.2283C82.3333 39.5787 81.0016 38.2513 79.3694 38.2513H65.5723ZM12.2017 43.7858C12.2082 42.8626 11.4559 42.2054 10.6581 42.2054H9.11021V58.9968H10.6581C11.4624 58.9968 12.2084 58.3569 12.2017 57.4382V43.7858ZM18.3177 63.1066H9.11021V71.4494H0V38.2513H18.3762C20.0213 38.2513 21.3054 39.5874 21.3054 41.2413V60.1168C21.3054 61.7728 19.9716 63.1066 18.3177 63.1066ZM113.597 64.0254C111.766 64.0254 110.228 65.6079 110.228 67.5256C110.228 69.4497 111.766 71.0191 113.655 71.0191C115.529 71.0191 117.047 69.4497 117.047 67.5256C117.047 65.6036 115.529 64.0254 113.655 64.0254H113.597ZM117.7 67.5147C117.7 69.7695 115.893 71.6029 113.655 71.6029C111.394 71.6029 109.578 69.7827 109.578 67.5147C109.578 65.2901 111.394 63.4309 113.588 63.4309C115.893 63.4309 117.7 65.2341 117.7 67.5147Z" fill="black"/>
<path d="M113.233 67.2553C113.867 67.2553 114.2 67.0304 114.2 66.5809C114.2 66.1808 113.878 65.9755 113.261 65.9755H113.08V67.2553H113.233ZM115.566 69.8798H114.479L113.08 68.0184V69.8798H112.191V65.1734H113.125C114.394 65.1734 115.069 65.6534 115.069 66.57C115.069 67.1817 114.671 67.7245 114.115 67.8865L114.051 67.9104L115.566 69.8798ZM97.6289 59.0033V43.7167C97.6072 42.8713 96.9263 42.2228 96.0767 42.2228C95.2356 42.2228 94.5395 42.8972 94.5331 43.7405V59.0033H97.6289ZM97.6289 71.4494V63.1153H94.5331V71.4494H85.4272V41.2283C85.4272 39.5787 86.7567 38.2513 88.389 38.2513H103.773C105.41 38.2513 106.739 39.5787 106.739 41.2283V71.4493L97.6289 71.4494Z" fill="black"/>
</g>
<defs>
<clipPath id="clip0_525_44">
<rect width="138" height="73.9128" fill="white"/>
</clipPath>
</defs>
</svg>
