<svg width="183" height="50" viewBox="0 0 183 50" fill="none" xmlns="http://www.w3.org/2000/svg">
<g clip-path="url(#clip0_525_10)">
<path d="M173.21 23.5911L183 49.5079C180.115 49.0959 177.231 48.5798 174.295 48.1148L168.78 33.7948L163.114 46.9327C160.333 46.4677 157.601 46.3129 154.82 45.9518L164.763 23.283L155.744 0.0484619H164.092L169.14 13.03L174.551 0.0484619H182.998L173.21 23.5911ZM149.153 0.0484619H141.579V44.9741C144.053 45.1292 146.628 45.2313 149.153 45.5396V0.0484619ZM135.036 44.4582C128.133 43.9948 121.228 43.5844 114.171 43.4278V0.048661H121.898V36.1126C126.329 36.2149 130.759 36.5744 135.036 36.7804V44.4582ZM105.926 17.6181V25.3452H95.3646V42.9133H87.7413V0.0484619H109.38V7.77565H95.3662V17.6183H105.927L105.926 17.6181ZM74.7564 7.77565V43.3255C72.1796 43.3255 69.5535 43.3255 67.0276 43.4278V7.77565H59.0417V0.0484619H82.7917V7.77565H74.7564ZM50.6963 25.7559C47.2967 25.7559 43.2772 25.7559 40.3921 25.9125V37.4002C44.9259 37.0903 49.4596 36.7308 54.0444 36.576V43.9948L32.6649 45.6963V0.0484619H54.043V7.77565H40.3919V18.1835C43.3809 18.1835 47.9658 18.0287 50.6959 18.0287V25.7575L50.6963 25.7559ZM7.88065 21.4281V48.4247C5.10104 48.7346 2.62635 49.0957 0 49.5079V0.0484619H7.36792L17.4133 28.1284V0.0484619H25.1421V46.3129C22.4119 46.7778 19.6291 46.9327 16.6928 47.3433L7.88065 21.4281Z" fill="black"/>
</g>
<defs>
<clipPath id="clip0_525_10">
<rect width="183" height="49.5564" fill="white"/>
</clipPath>
</defs>
</svg>
