<svg width="169" height="55" viewBox="0 0 169 55" fill="none" xmlns="http://www.w3.org/2000/svg">
<path d="M134.281 1.44919H140.315V41.8193H134.281V1.44919Z" fill="black"/>
<path d="M57.435 15.1918C49.8341 15.1918 43.6431 20.9688 43.6431 28.9245C43.6431 36.831 49.8341 42.6573 57.435 42.6573C65.0358 42.6573 71.2269 36.831 71.2269 28.9245C71.2269 20.959 65.0358 15.1918 57.435 15.1918ZM57.435 37.245C53.2747 37.245 49.6863 33.8143 49.6863 28.9245C49.6863 23.9855 53.2747 20.6041 57.435 20.6041C61.5952 20.6041 65.1837 23.9855 65.1837 28.9245C65.1837 33.8143 61.5952 37.245 57.435 37.245Z" fill="black"/>
<path d="M21.6392 19.4013V25.2276H35.579C35.1649 28.5006 34.0706 30.8962 32.4045 32.5623C30.3737 34.5931 27.1993 36.831 21.6392 36.831C13.0525 36.831 6.34881 29.9104 6.34881 21.3237C6.34881 12.737 13.0525 5.82631 21.6392 5.82631C26.2726 5.82631 29.6541 7.65012 32.1482 9.98656L36.2592 5.8756C32.7693 2.54347 28.1457 0 21.6392 0C9.87811 0 0 9.5725 0 21.3336C0 33.0946 9.88797 42.6671 21.6392 42.6671C27.988 42.6671 32.7693 40.587 36.5155 36.6831C40.3701 32.8285 41.563 27.4261 41.563 23.0489C41.563 21.6983 41.4546 20.4463 41.2475 19.4112H21.6392V19.4013Z" fill="black"/>
<path d="M156.857 37.245C153.791 37.245 151.602 35.8451 150.193 33.0848L168.559 25.484L167.938 23.9263C166.794 20.8604 163.304 15.1819 156.177 15.1819C149.098 15.1819 143.223 20.7519 143.223 28.9147C143.223 36.6141 149.049 42.6474 156.857 42.6474C163.156 42.6474 166.794 38.7928 168.302 36.5648L163.62 33.4397C162.062 35.7367 159.933 37.245 156.857 37.245ZM156.393 20.4956C158.789 20.4956 160.82 21.6885 161.49 23.4137L149.217 28.5105C149.059 23.1968 153.318 20.4956 156.393 20.4956Z" fill="black"/>
<path d="M124.393 18.2578H124.186C122.835 16.641 120.233 15.1918 116.95 15.1918C110.079 15.1918 103.789 21.2251 103.789 28.9837C103.789 36.6831 110.089 42.6672 116.95 42.6672C120.223 42.6672 122.826 41.2081 124.186 39.542H124.393V41.5236C124.393 46.7781 121.583 49.5877 117.058 49.5877C113.362 49.5877 111.074 46.9358 110.138 44.698L104.883 46.8865C106.392 50.5243 110.394 55 117.058 55C124.137 55 130.121 50.8398 130.121 40.6955V16.0199H124.393V18.2578ZM117.473 37.245C113.312 37.245 109.822 33.7552 109.822 28.9738C109.822 24.1334 113.312 20.5942 117.473 20.5942C121.583 20.5942 124.807 24.1334 124.807 28.9738C124.807 33.765 121.583 37.245 117.473 37.245Z" fill="black"/>
<path d="M87.5033 15.1918C79.9025 15.1918 73.7114 20.9688 73.7114 28.9245C73.7114 36.831 79.9025 42.6573 87.5033 42.6573C95.1041 42.6573 101.295 36.831 101.295 28.9245C101.295 20.959 95.1041 15.1918 87.5033 15.1918ZM87.5033 37.245C83.3431 37.245 79.7546 33.8143 79.7546 28.9245C79.7546 23.9855 83.3431 20.6041 87.5033 20.6041C91.6636 20.6041 95.252 23.9855 95.252 28.9245C95.2619 33.8143 91.6734 37.245 87.5033 37.245Z" fill="black"/>
</svg>
