<svg width="137" height="48" viewBox="0 0 137 48" fill="none" xmlns="http://www.w3.org/2000/svg">
<g clip-path="url(#clip0_525_23)">
<path d="M7.88208 33.97C8.46102 35.5065 9.26256 36.8201 10.2868 37.9111C11.3111 39.0022 12.5246 39.8371 13.9272 40.4161C15.3301 40.995 16.8552 41.2844 18.503 41.2844C20.1062 41.2844 21.6091 40.9838 23.0119 40.3825C24.4147 39.7812 25.6392 38.9352 26.6857 37.8443C27.7321 36.7532 28.5449 35.4507 29.1238 33.9366C29.7028 32.4225 29.9922 30.7305 29.9922 28.86V0.00341797H37.0059V46.7617H30.059V42.4198C28.5004 44.0674 26.6633 45.3366 24.5481 46.2274C22.4328 47.1179 20.1507 47.5633 17.7014 47.5633C15.2075 47.5633 12.8808 47.129 10.7209 46.2607C8.56124 45.3923 6.69078 44.1567 5.11002 42.5534C3.52926 40.9502 2.28224 39.0245 1.3694 36.7755C0.456418 34.5267 0 32.0218 0 29.2607V0.00341797H7.01373V28.86C7.01373 30.7305 7.30313 32.4336 7.88208 33.97ZM49.0957 0.00341797V17.0368C50.6543 15.4782 52.4579 14.2425 54.5063 13.3295C56.5547 12.4166 58.7814 11.9601 61.186 11.9601C63.6799 11.9601 66.0176 12.4277 68.1997 13.3628C70.3818 14.298 72.2742 15.5672 73.8775 17.1704C75.4807 18.7736 76.7499 20.6661 77.6851 22.8481C78.6202 25.0303 79.0877 27.3459 79.0877 29.7952C79.0877 32.2443 78.6202 34.5488 77.6851 36.7086C76.7499 38.8684 75.4807 40.7499 73.8775 42.3529C72.2742 43.9561 70.3818 45.2253 68.1997 46.1605C66.0176 47.0956 63.6798 47.5631 61.186 47.5631C58.7812 47.5631 56.5436 47.1067 54.4729 46.1937C52.4022 45.2809 50.5875 44.0451 49.0289 42.4865V46.7616H42.3492V0.00341797H49.0957ZM49.8638 34.4041C50.4649 35.8293 51.3 37.0761 52.3688 38.1449C53.4375 39.2137 54.6844 40.0599 56.1094 40.6833C57.5345 41.3067 59.0708 41.6184 60.7185 41.6184C62.3217 41.6184 63.8357 41.3067 65.2607 40.6833C66.6856 40.0599 67.9213 39.2138 68.968 38.1449C70.0145 37.0763 70.8494 35.8293 71.4729 34.4041C72.0963 32.9792 72.408 31.4429 72.408 29.7952C72.408 28.1475 72.0963 26.6 71.4729 25.1527C70.8494 23.7054 70.0145 22.4474 68.968 21.3786C67.9214 20.31 66.6858 19.4749 65.2607 18.8738C63.8355 18.2727 62.3216 17.9719 60.7185 17.9719C59.1154 17.9719 57.6013 18.2725 56.1764 18.8738C54.7514 19.4751 53.5045 20.31 52.4356 21.3786C51.367 22.4474 50.5208 23.7054 49.8974 25.1527C49.2739 26.6 48.9622 28.1475 48.9622 29.7952C48.9621 31.4429 49.2627 32.9792 49.8638 34.4041ZM82.8945 22.9151C83.785 20.7775 85.0099 18.8961 86.5683 17.2707C88.1268 15.6453 89.9751 14.3651 92.1126 13.4299C94.2501 12.4948 96.5658 12.0273 99.0595 12.0273C101.509 12.0273 103.78 12.4726 105.873 13.3631C107.966 14.2538 109.769 15.4896 111.283 17.0705C112.798 18.6512 113.978 20.5217 114.824 22.6814C115.67 24.8412 116.093 27.1903 116.093 29.7287V31.933H88.372C88.5947 33.3135 89.0401 34.5938 89.708 35.7737C90.3761 36.9538 91.2109 37.978 92.2128 38.8464C93.2148 39.7149 94.3504 40.394 95.6195 40.8837C96.8887 41.3735 98.2357 41.6186 99.6608 41.6186C103.713 41.6186 106.986 39.9486 109.48 36.6086L114.356 40.2156C112.664 42.4868 110.571 44.2681 108.077 45.5595C105.584 46.8508 102.778 47.4966 99.6609 47.4966C97.1226 47.4966 94.7514 47.0511 92.547 46.1606C90.3427 45.2701 88.4279 44.0231 86.8025 42.4198C85.1771 40.8166 83.8968 38.9352 82.9616 36.7755C82.0265 34.6158 81.5588 32.2666 81.5588 29.7284C81.5585 27.3238 82.004 25.0526 82.8945 22.9151ZM92.2796 20.2765C90.387 21.8574 89.129 23.9615 88.5056 26.5889H109.28C108.701 23.9615 107.465 21.8574 105.572 20.2765C103.68 18.6957 101.464 17.9053 98.9261 17.9053C96.3877 17.9053 94.1723 18.6957 92.2796 20.2765ZM128.717 21.0446C127.292 22.6032 126.58 24.7184 126.58 27.3904V46.7619H119.833V12.695H126.513V16.9033C127.359 15.5228 128.461 14.4317 129.819 13.6302C131.177 12.8285 132.792 12.4277 134.662 12.4277H137V18.7066H134.195C131.968 18.7068 130.142 19.486 128.717 21.0446Z" fill="black"/>
</g>
<defs>
<clipPath id="clip0_525_23">
<rect width="137" height="47.5664" fill="white"/>
</clipPath>
</defs>
</svg>
