<svg width="160" height="65" viewBox="0 0 160 65" fill="none" xmlns="http://www.w3.org/2000/svg">
<g clip-path="url(#clip0_525_38)">
<path d="M20.6895 13.9968C9.40414 13.9968 0 18.784 0 33.2288C0 44.6722 6.32368 51.878 20.9804 51.878C38.2324 51.878 39.3382 40.5136 39.3382 40.5136H30.979C30.979 40.5136 29.1869 46.6329 20.4707 46.6329C13.3716 46.6329 8.26578 41.8372 8.26578 35.1159H40.2129V30.8976C40.2129 24.2479 35.9915 13.9968 20.6895 13.9968ZM20.3976 19.3876C27.1552 19.3876 31.762 23.5274 31.762 29.7321H8.45043C8.45043 23.1447 14.464 19.3876 20.3976 19.3876Z" fill="black"/>
<path d="M40.2073 0.00930786V44.6241C40.2073 47.1565 40.0264 50.7125 40.0264 50.7125H47.9992C47.9992 50.7125 48.2857 48.1587 48.2857 45.8244C48.2857 45.8244 52.2249 51.9874 62.936 51.9874C74.215 51.9874 81.8767 44.1561 81.8767 32.9374C81.8767 22.5 74.8394 14.1056 62.9542 14.1056C51.8246 14.1056 48.3663 20.1155 48.3663 20.1155V0.00930786H40.2073ZM60.8963 19.624C68.5558 19.624 73.4268 25.3088 73.4268 32.9374C73.4268 41.1178 67.8012 46.4691 60.9513 46.4691C52.7762 46.4691 48.3663 40.0856 48.3663 33.01C48.3663 26.4168 52.3231 19.624 60.8963 19.624Z" fill="black"/>
<path d="M101.692 13.9968C84.7142 13.9968 83.6255 23.2926 83.6255 24.7784H92.0759C92.0759 24.7784 92.5189 19.3513 101.109 19.3513C106.691 19.3513 111.017 21.9066 111.017 26.8181V28.5665H101.109C87.9564 28.5665 81.0029 32.4144 81.0029 40.2228C81.0029 47.9068 87.4275 52.0878 96.1101 52.0878C107.943 52.0878 111.755 45.5495 111.755 45.5495C111.755 48.1502 111.955 50.713 111.955 50.713H119.467C119.467 50.713 119.176 47.5365 119.176 45.5042V27.9383C119.176 16.4202 109.886 13.9968 101.692 13.9968ZM111.017 33.8116V36.1427C111.017 39.1832 109.14 46.7423 98.0949 46.7423C92.0466 46.7423 89.4534 43.7238 89.4534 40.2222C89.4534 33.8527 98.1861 33.8116 111.017 33.8116Z" fill="black"/>
<path d="M114.625 15.4548H124.132L137.775 42.7893L151.388 15.4548H160L135.205 64.1187H126.171L133.326 50.5529L114.625 15.4548Z" fill="black"/>
</g>
<defs>
<clipPath id="clip0_525_38">
<rect width="160" height="64.128" fill="white"/>
</clipPath>
</defs>
</svg>
