<svg width="56" height="65" viewBox="0 0 56 65" fill="none" xmlns="http://www.w3.org/2000/svg">
<g clip-path="url(#clip0_525_20)">
<path d="M27.6139 15.696C31.1969 15.696 34.34 14.2969 37.0433 11.4986C39.7466 8.70034 41.0983 5.44642 41.0983 1.73687C41.0983 1.32946 41.0661 0.7505 41.0018 0C40.5298 0.0643286 40.1757 0.117936 39.9397 0.160821C36.6357 0.632564 33.7285 2.2515 31.2183 5.01756C28.7081 7.78369 27.453 10.7428 27.453 13.8949C27.453 14.2594 27.5066 14.8598 27.6139 15.696ZM40.4546 64.8749C43.0078 64.8749 45.8291 63.1274 48.9186 59.6322C52.0082 56.137 54.3681 52.0307 55.9987 47.3133C49.927 44.1827 46.8911 39.6905 46.8911 33.8366C46.8911 28.9477 49.3477 24.7664 54.2609 21.2926C50.8496 17.0255 46.344 14.8919 40.7443 14.8919C38.3842 14.8919 36.2281 15.2457 34.2757 15.9533L33.0528 16.4036L31.4114 17.0469C30.3387 17.4543 29.3625 17.6581 28.4828 17.6581C27.7963 17.6581 26.8951 17.4222 25.7795 16.9504L24.5244 16.4358L23.3337 15.9533C21.5958 15.2243 19.7292 14.8598 17.734 14.8598C12.3917 14.8598 8.10072 16.661 4.861 20.2634C1.62129 23.8657 0.00146484 28.6153 0.00146484 34.512C0.00146484 42.8103 2.59748 50.4761 7.78959 57.5093C11.394 62.4197 14.6874 64.8749 17.6696 64.8749C18.9354 64.8749 20.1905 64.6283 21.4349 64.1351L23.0118 63.4918L24.267 63.0415C26.0263 62.4197 27.6461 62.1088 29.1265 62.1088C30.6927 62.1088 32.4949 62.5055 34.5331 63.2988L35.5308 63.6848C37.6118 64.4782 39.2532 64.8749 40.4546 64.8749Z" fill="black"/>
</g>
<defs>
<clipPath id="clip0_525_20">
<rect width="56" height="64.8749" fill="white"/>
</clipPath>
</defs>
</svg>
