<svg width="151" height="57" viewBox="0 0 151 57" fill="none" xmlns="http://www.w3.org/2000/svg">
<g clip-path="url(#clip0_525_6)">
<path d="M88.2741 0.00734926C90.229 0.00966824 92.1827 0.000389154 94.1388 0.0131435C94.1365 1.50424 94.1365 2.99535 94.1388 4.48645C92.1827 4.48877 90.229 4.48645 88.2741 4.48877V0.00734926ZM34.3011 6.53642C36.8798 5.56825 40.327 6.27206 41.6337 8.90061C42.6691 7.65532 44.0072 6.57236 45.6421 6.28133C47.6909 5.92421 50.0841 6.15147 51.6378 7.66692C53.028 9.06062 53.3782 11.1245 53.4327 13.0098C53.4385 16.8176 53.4292 20.6265 53.4361 24.4331C51.4928 24.4273 49.5461 24.4331 47.6016 24.4308C47.6178 21.1645 47.5993 17.8982 47.6143 14.6331C47.6051 13.709 47.5796 12.7153 47.0497 11.9176C46.2438 10.7106 44.3098 10.6491 43.3057 11.6347C42.5752 12.4429 42.5312 13.6035 42.4987 14.632C42.4871 17.8913 42.4987 21.1541 42.4964 24.4169C40.5264 24.4459 38.5553 24.4227 36.583 24.4331C36.5853 21.0462 36.583 17.6594 36.5888 14.276C36.5795 13.2881 36.4763 12.1785 35.7516 11.4399C34.5887 10.4903 32.5271 10.968 31.9647 12.3883C31.5067 13.4875 31.4743 14.705 31.4615 15.8772C31.4615 18.7296 31.4615 21.5808 31.465 24.4319C29.5159 24.4296 27.5656 24.4319 25.6189 24.4296C25.6316 18.5162 25.6247 12.6052 25.6224 6.69179C27.5054 6.69179 29.3895 6.68831 31.2714 6.69527C31.2656 7.48836 31.2598 8.28492 31.2401 9.08149C32.054 8.02172 33.0129 7.00137 34.3011 6.53642ZM82.0952 7.37704C83.4993 6.33235 85.3522 6.15727 87.0381 6.42163C87.0305 8.19834 87.0294 9.97507 87.0346 11.7518C85.7 11.4851 84.2692 11.2578 82.9625 11.775C81.4389 12.3489 80.4081 13.949 80.4707 15.57C80.4649 18.5244 80.4707 21.4776 80.4707 24.4343C78.5054 24.4319 76.5389 24.4343 74.5701 24.4319C74.5724 18.5186 74.5724 12.6075 74.5701 6.69411C76.4751 6.69063 78.3767 6.69063 80.2794 6.69411C80.2794 7.70982 80.2725 8.73017 80.2528 9.74936C80.7374 8.87163 81.2522 7.95679 82.0952 7.37704ZM96.0716 11.5129C97.0688 8.98294 99.3588 7.03732 102.006 6.43439C104.978 5.75145 108.351 6.18857 110.786 8.12027C112.353 9.33658 113.157 11.2555 113.425 13.1803C111.539 13.2035 109.649 13.1896 107.763 13.1896C107.56 12.6388 107.449 12.0173 107.032 11.5767C105.818 10.2317 103.482 10.3639 102.26 11.6219C101.237 12.7849 101.12 14.4163 101.125 15.8912C101.12 17.2362 101.442 18.6797 102.422 19.6607C103.536 20.7367 105.428 20.7552 106.648 19.8439C107.418 19.2734 107.644 18.2994 107.929 17.4356C109.795 17.4426 111.661 17.4391 113.527 17.4356C113.343 19.6317 112.288 21.7628 110.519 23.1078C106.322 26.2883 99.3228 25.4245 96.5459 20.7633C94.8959 18.0014 94.8936 14.4534 96.0716 11.5129ZM138.767 9.03395C140.79 6.07378 145.12 5.32243 148.188 7.00485C149.952 8.01128 150.73 10.1018 150.768 12.0486C150.816 16.1752 150.765 20.3007 150.792 24.4308C148.852 24.4331 146.911 24.4273 144.973 24.4331C144.968 21.0845 144.986 17.7336 144.966 14.3838C144.936 13.309 144.843 11.9906 143.819 11.3715C142.572 10.6909 140.783 10.8115 139.83 11.9431C139.057 12.8533 138.898 14.1032 138.912 15.2558C138.927 18.3145 138.912 21.3709 138.924 24.4296C136.976 24.4319 135.03 24.4296 133.082 24.4319C133.091 18.5174 133.086 12.604 133.082 6.69063C134.986 6.68715 136.886 6.69063 138.791 6.68715C138.787 7.47212 138.78 8.25362 138.767 9.03395ZM88.2718 6.68832C90.229 6.69527 92.1827 6.68599 94.1388 6.69527C94.1365 12.6052 94.1365 18.5162 94.1388 24.4261C92.1827 24.4354 90.229 24.4261 88.2741 24.4319C88.2741 18.5197 88.2741 12.6063 88.2718 6.68832ZM15.5916 0.0143024C13.411 0.000579712 11.2304 0.00250906 9.0498 0.0200966C6.0676 8.16781 2.89408 16.2483 0 24.4273C2.17404 24.4401 4.3446 24.4273 6.51632 24.4331C7.02881 22.9872 7.54014 21.5367 8.03408 20.085C10.8725 20.0815 13.7086 20.0723 16.547 20.0908C17.0352 21.5379 17.5384 22.9814 18.0289 24.4273C20.2655 24.4366 22.4987 24.4273 24.7365 24.4331C21.6766 16.2958 18.6364 8.15506 15.5916 0.0143024ZM9.52519 15.3207C10.4551 12.466 11.4024 9.61718 12.2813 6.74513C13.246 9.58819 14.104 12.4614 15.0212 15.3207C13.1892 15.3184 11.3572 15.3184 9.52519 15.3207ZM73.5161 16.988C73.6043 13.9444 72.868 10.6491 70.5907 8.4832C67.0079 5.1404 60.8255 5.43027 57.3668 8.81481C53.3805 12.5391 53.6495 19.9343 58.1065 23.1751C61.1119 25.2621 65.1864 25.4755 68.5582 24.2105C70.8528 23.3664 72.5885 21.3686 73.2286 19.0229C71.4186 19.0206 69.6087 19.0171 67.8033 19.0264C66.6705 21.2387 63.3811 21.626 61.621 19.9795C60.7931 19.2143 60.567 18.0629 60.3629 17.0089C64.7458 16.9683 69.1298 17.0066 73.5161 16.988ZM61.6372 11.157C62.8083 9.90821 64.9823 9.70066 66.2693 10.8915C67.1297 11.5767 67.4903 12.6608 67.6619 13.7078C65.2374 13.7148 62.8117 13.7148 60.3884 13.7078C60.6586 12.8011 60.9357 11.8376 61.6372 11.157ZM131.713 12.6921C131.706 11.0677 131.48 9.27976 130.264 8.08781C128.708 6.56772 126.418 6.24654 124.341 6.15378C121.819 6.0703 119.058 6.28713 116.984 7.87099C115.638 8.8751 115.032 10.5285 114.876 12.1495C116.69 12.1669 118.507 12.1495 120.318 12.1622C120.632 11.47 120.902 10.6619 121.638 10.3071C122.833 9.7053 124.408 9.80269 125.497 10.5946C126.418 11.2092 126.303 12.9171 125.175 13.2209C122.232 14.0487 118.918 13.7055 116.247 15.3914C114.205 16.6715 113.828 19.4485 114.526 21.5877C115.061 23.2574 116.626 24.4076 118.301 24.7554C120.991 25.3514 124.059 24.8007 126.105 22.8655C126.209 23.3861 126.32 23.9079 126.429 24.4308C128.193 24.4273 129.952 24.4424 131.719 24.4215C131.71 20.5117 131.715 16.6008 131.713 12.6921ZM124.728 20.7413C123.63 21.4579 122.095 21.5912 120.928 20.9639C119.717 20.2752 119.792 18.2936 121.013 17.6536C122.566 16.8048 124.411 16.8373 126.055 16.232C126.013 17.7776 126.08 19.6827 124.728 20.7413ZM115.58 26.7474C117.528 26.744 119.469 26.744 121.416 26.7474C121.413 34.8859 121.406 43.022 121.42 51.1639C119.472 51.1662 117.528 51.1639 115.578 51.1639C115.587 43.0266 115.582 34.8859 115.58 26.7474ZM88.7112 36.4779C89.7559 33.8261 92.8146 32.5078 95.5209 33.1745C95.5012 34.9415 95.507 36.7109 95.5186 38.4791C94.0646 38.173 92.468 37.933 91.0963 38.6554C89.7049 39.2977 88.9153 40.8317 88.9083 42.3263C88.8967 45.2703 88.9037 48.2165 88.913 51.1628C86.965 51.1651 85.0171 51.1628 83.0703 51.1651C83.0889 45.2297 83.0564 39.2977 83.0854 33.3635C84.9719 33.3728 86.8595 33.3658 88.7414 33.3693C88.7487 34.4056 88.7387 35.4419 88.7112 36.4779ZM15.754 26.744C13.5811 26.744 11.407 26.7474 9.23415 26.744C6.17311 34.8789 3.15148 43.0266 0.0857992 51.1593C2.28767 51.1709 4.49069 51.1686 6.68792 51.1616L8.19873 46.8367C11.0383 46.7706 13.8767 46.7706 16.7128 46.8251C17.2068 48.2698 17.7065 49.7122 18.1947 51.1616C20.4313 51.1686 22.668 51.1686 24.9058 51.1616C21.8285 43.0324 18.8115 34.8836 15.754 26.744ZM9.70607 42.0573C10.6042 39.215 11.5229 36.3792 12.4622 33.5502C13.4443 36.3573 14.2976 39.2084 15.1649 42.0515C13.3445 42.0573 11.5253 42.0515 9.70607 42.0573ZM114.6 43.7223C114.702 40.6079 113.925 37.2269 111.532 35.0668C107.861 31.8225 101.68 32.2179 98.2967 35.7056C94.2942 39.6456 94.8774 47.4292 99.8446 50.3221C102.925 52.0614 106.855 52.1507 110.079 50.7535C112.185 49.8525 113.698 47.9382 114.323 45.7596C112.507 45.748 110.686 45.7526 108.871 45.7596C107.724 48.0264 104.296 48.3684 102.583 46.577C101.847 45.8175 101.652 44.7357 101.455 43.7397C105.837 43.6957 110.217 43.7328 114.6 43.7223ZM101.491 40.3819C101.755 39.4925 102.043 38.5568 102.718 37.8843C103.854 36.69 105.891 36.4489 107.211 37.482C108.157 38.144 108.535 39.2908 108.781 40.3621C106.349 40.4155 103.92 40.3865 101.491 40.3819ZM41.7323 35.1015C39.9629 33.1443 37.0468 32.4475 34.5318 33.0945C33.2124 33.4296 32.1793 34.3746 31.3259 35.3868C31.3409 34.7154 31.3537 34.0464 31.3607 33.3739C29.4939 33.3704 27.6259 33.3739 25.7592 33.3704C25.7418 41.248 25.765 49.1209 25.7453 56.9973H31.6528C31.6273 54.4325 31.6842 51.8677 31.5879 49.3053C33.8605 52.2527 38.5506 52.4776 41.3056 50.103C43.4089 48.271 44.2484 45.3746 44.253 42.6637C44.2368 39.9795 43.5956 37.1237 41.7323 35.1015ZM36.9807 46.4065C35.6148 47.7481 32.9828 47.406 32.1016 45.6691C31.407 44.3531 31.3734 42.8087 31.4418 41.3547C31.5218 39.874 32.1908 38.2472 33.6379 37.6292C34.8229 37.097 36.3685 37.3278 37.2288 38.34C38.1715 39.4276 38.4045 40.9372 38.3976 42.3275C38.328 43.7722 38.0416 45.3456 36.9807 46.4065ZM61.5062 35.3949C59.7345 33.1977 56.5841 32.3721 53.9104 33.1374C52.6349 33.5026 51.6215 34.4175 50.8342 35.4517C50.8377 34.7572 50.8412 34.0638 50.8412 33.3681C48.986 33.3716 47.132 33.3681 45.2768 33.3716C45.271 41.2457 45.2768 49.1209 45.271 56.995H51.1369C51.1206 54.4302 51.1612 51.8654 51.1114 49.3029C53.3573 52.2446 58.0289 52.4765 60.778 50.1285C62.7375 48.4554 63.6292 45.8291 63.7382 43.3165C63.8541 40.5419 63.2999 37.5898 61.5062 35.3949ZM56.612 46.2941C55.2832 47.7481 52.5584 47.4675 51.6285 45.7004C50.9027 44.2858 50.8389 42.6231 50.9815 41.0694C51.1195 39.605 51.8894 38.0501 53.3584 37.5434C54.4205 37.1689 55.7134 37.3394 56.5389 38.1417C57.5801 39.1227 57.8874 40.63 57.9118 42.004C57.9141 43.5067 57.6346 45.13 56.612 46.2941ZM81.8123 38.8548C81.8192 37.2965 81.3682 35.6268 80.1426 34.5833C78.6341 33.2997 76.5772 32.9843 74.6652 32.8846C72.112 32.7791 69.3339 32.9704 67.1923 34.5183C65.7905 35.5155 65.1319 37.2188 65.0264 38.8861C66.8329 38.8884 68.6393 38.8931 70.4458 38.8861C70.745 38.1556 71.0569 37.3196 71.8384 36.9857C73.0176 36.4535 74.5087 36.5497 75.5858 37.2779C76.5053 37.8762 76.4427 39.5679 75.3365 39.9227C72.3346 40.79 68.9222 40.4074 66.2241 42.2115C64.3747 43.4661 63.984 46.0158 64.5568 48.0449C64.9707 49.6218 66.3018 50.8427 67.8393 51.3205C70.6939 52.1936 74.0008 51.6057 76.2641 49.6148C76.3465 50.1273 76.4323 50.641 76.5262 51.15C78.2897 51.1686 80.0522 51.157 81.8181 51.1593C81.8053 47.0617 81.825 42.9582 81.8123 38.8548ZM75.2577 47.0988C74.3371 48.14 72.7532 48.1864 71.4905 47.8976C69.9936 47.4988 69.7316 45.2227 71.036 44.4424C72.5967 43.5275 74.4959 43.5844 76.1656 42.9501C76.1308 44.3554 76.2003 45.9393 75.2577 47.0988Z" fill="black"/>
<path d="M125.438 29.8862C125.269 30.0544 125.068 30.187 124.847 30.2762C124.626 30.3655 124.39 30.4094 124.151 30.4056C123.634 30.4056 123.199 30.2282 122.843 29.8734C122.67 29.7035 122.533 29.4998 122.441 29.2748C122.35 29.0498 122.305 28.8084 122.311 28.5655C122.311 28.0287 122.504 27.5823 122.885 27.2263C123.244 26.8935 123.666 26.7277 124.151 26.7277C124.659 26.7277 125.093 26.9063 125.45 27.2669C125.812 27.6263 125.99 28.0588 125.99 28.5667C125.99 29.0884 125.806 29.5267 125.438 29.8862ZM123.069 27.4999C122.928 27.639 122.817 27.8049 122.741 27.988C122.666 28.1711 122.628 28.3675 122.63 28.5655C122.63 28.991 122.779 29.354 123.077 29.6519C123.373 29.9511 123.73 30.1007 124.151 30.1007C124.569 30.1007 124.926 29.9488 125.221 29.6496C125.518 29.3482 125.665 28.9876 125.665 28.5655C125.665 28.1562 125.518 27.8014 125.224 27.4999C125.087 27.353 124.921 27.2363 124.736 27.1572C124.551 27.0781 124.352 27.0385 124.151 27.0408C123.729 27.0408 123.368 27.195 123.069 27.4999ZM123.346 29.5893V27.551C123.675 27.5511 124.004 27.5526 124.333 27.5556C124.496 27.5672 124.629 27.602 124.734 27.6611C124.915 27.7608 125.006 27.9232 125.006 28.1469C125.006 28.3185 124.958 28.4414 124.863 28.518C124.76 28.596 124.638 28.6435 124.509 28.6548C124.613 28.6712 124.712 28.7117 124.797 28.7731C124.918 28.8705 124.977 29.0212 124.977 29.2311V29.4119C124.976 29.453 124.983 29.4937 124.996 29.5325L125.017 29.5917H124.508C124.489 29.499 124.478 29.4046 124.477 29.3099C124.475 29.2254 124.464 29.1414 124.443 29.0595C124.431 29.0249 124.411 28.9935 124.385 28.9676C124.359 28.9418 124.327 28.922 124.293 28.9099C124.234 28.89 124.172 28.8795 124.111 28.8786L123.992 28.8705H123.881V29.5917L123.346 29.5893ZM124.318 27.9533C124.218 27.9204 124.113 27.9058 124.009 27.9104H123.879V28.5017H124.085C124.188 28.5083 124.29 28.4823 124.377 28.4275C124.449 28.3765 124.484 28.2977 124.484 28.1852C124.483 28.0739 124.428 27.9962 124.318 27.9533Z" fill="black"/>
</g>
<defs>
<clipPath id="clip0_525_6">
<rect width="150.794" height="57" fill="white"/>
</clipPath>
</defs>
</svg>
