<svg width="248" height="53" viewBox="0 0 248 53" fill="none" xmlns="http://www.w3.org/2000/svg">
<g clip-path="url(#clip0_525_13)">
<path d="M87.5556 30.5107L86.0773 34.6992H85.9541C85.7077 33.7548 85.256 32.3175 84.5168 30.5928L76.5915 10.6767H68.8303V42.4193H73.9633V22.8317C73.9633 21.5998 73.9633 20.2036 73.9223 18.4789C73.8812 17.6165 73.7991 16.9595 73.758 16.4667H73.8812C74.1276 17.6987 74.415 18.6021 74.6204 19.177L84.1473 42.3372H87.7609L97.2057 18.9717C97.411 18.4378 97.6163 17.3702 97.8216 16.4667H97.9448C97.8216 18.8074 97.7395 20.9017 97.6984 22.1747V42.2961H103.16V10.5946H95.6863L87.5556 30.5107ZM108.334 19.5466H113.672V42.2961H108.334V19.5466ZM111.044 9.93754C110.141 9.93754 109.402 10.2661 108.786 10.8409C108.17 11.4158 107.841 12.155 107.841 13.0584C107.841 13.9208 108.17 14.6599 108.786 15.2348C109.402 15.8097 110.141 16.0972 111.044 16.0972C111.948 16.0972 112.728 15.7687 113.303 15.2348C113.919 14.6599 114.247 13.9208 114.247 13.0584C114.247 12.1961 113.919 11.4569 113.303 10.8409C112.769 10.2661 111.989 9.93754 111.044 9.93754ZM132.603 19.3412C131.617 19.1359 130.591 19.0127 129.605 19.0127C127.183 19.0127 124.965 19.5466 123.117 20.6142C121.269 21.6819 119.791 23.1602 118.846 25.0081C117.861 26.897 117.368 29.0735 117.368 31.5784C117.368 33.7548 117.861 35.6848 118.805 37.4505C119.75 39.1752 121.064 40.5714 122.83 41.5159C124.513 42.4604 126.484 42.9531 128.702 42.9531C131.248 42.9531 133.424 42.4193 135.149 41.4338L135.19 41.3927V36.465L134.985 36.6293C134.205 37.2042 133.301 37.6969 132.398 37.9844C131.453 38.3129 130.591 38.4771 129.852 38.4771C127.716 38.4771 126.033 37.8612 124.842 36.5061C123.61 35.192 122.994 33.3852 122.994 31.1267C122.994 28.786 123.61 26.9381 124.883 25.583C126.156 24.2279 127.84 23.5298 129.893 23.5298C131.617 23.5298 133.383 24.1047 134.985 25.2545L135.19 25.4187V20.2036L135.149 20.1625C134.451 19.8751 133.671 19.5466 132.603 19.3412ZM150.22 19.177C148.905 19.177 147.674 19.5876 146.606 20.45C145.702 21.1891 145.087 22.2568 144.553 23.5298H144.512V19.5466H139.173V42.2961H144.512V30.675C144.512 28.7039 144.922 27.0613 145.826 25.8704C146.729 24.6385 147.879 24.0226 149.275 24.0226C149.768 24.0226 150.261 24.1457 150.877 24.2279C151.451 24.3921 151.862 24.5564 152.15 24.7617L152.355 24.926V19.5876L152.232 19.5466C151.862 19.3002 151.123 19.177 150.22 19.177ZM164.756 19.0538C161.019 19.0538 158.022 20.1625 155.927 22.3389C153.792 24.5153 152.766 27.513 152.766 31.2909C152.766 34.8224 153.833 37.6969 155.886 39.7912C157.94 41.8444 160.732 42.9121 164.222 42.9121C167.877 42.9121 170.793 41.8033 172.887 39.5859C175.022 37.3684 176.049 34.4118 176.049 30.7571C176.049 27.1434 175.063 24.2689 173.051 22.1747C171.121 20.0804 168.288 19.0538 164.756 19.0538ZM169.027 36.5471C168.041 37.8201 166.481 38.4361 164.551 38.4361C162.621 38.4361 161.06 37.8201 159.952 36.465C158.843 35.192 158.309 33.3441 158.309 31.0035C158.309 28.5807 158.884 26.7328 159.952 25.4187C161.06 24.1047 162.58 23.4477 164.51 23.4477C166.399 23.4477 167.877 24.0636 168.945 25.3366C170.012 26.6096 170.587 28.4575 170.587 30.8803C170.505 33.3441 170.054 35.2741 169.027 36.5471ZM187.958 28.9913C186.274 28.2932 185.206 27.7594 184.713 27.3077C184.303 26.897 184.097 26.3221 184.097 25.583C184.097 24.967 184.344 24.3511 184.96 23.9404C185.576 23.5298 186.274 23.3245 187.301 23.3245C188.204 23.3245 189.148 23.4887 190.052 23.7351C190.955 23.9815 191.777 24.3511 192.434 24.8438L192.639 25.0081V19.9983L192.516 19.9572C191.9 19.7108 191.078 19.4644 190.093 19.2591C189.107 19.0949 188.204 19.0127 187.465 19.0127C184.919 19.0127 182.825 19.6287 181.182 20.9838C179.539 22.2568 178.759 23.9815 178.759 25.9936C178.759 27.0613 178.923 28.0058 179.293 28.786C179.663 29.5662 180.196 30.3054 180.936 30.9213C181.675 31.4962 182.742 32.1533 184.221 32.7692C185.453 33.3031 186.397 33.7137 186.972 34.0422C187.547 34.3707 187.916 34.7403 188.204 35.0278C188.409 35.3563 188.532 35.7669 188.532 36.3007C188.532 37.8201 187.383 38.5593 185.042 38.5593C184.139 38.5593 183.194 38.395 182.085 38.0254C180.977 37.6559 179.95 37.122 179.088 36.5061L178.882 36.3418V41.557L179.006 41.598C179.786 41.9676 180.73 42.214 181.88 42.5014C183.03 42.7068 184.056 42.871 184.96 42.871C187.711 42.871 189.97 42.2551 191.571 40.8999C193.214 39.5859 194.076 37.9023 194.076 35.7258C194.076 34.2065 193.665 32.8514 192.762 31.8248C191.571 30.8392 190.093 29.8126 187.958 28.9913ZM208.161 19.0538C204.424 19.0538 201.427 20.1625 199.332 22.3389C197.238 24.5153 196.17 27.513 196.17 31.2909C196.17 34.8224 197.238 37.6969 199.291 39.7912C201.344 41.8444 204.137 42.9121 207.627 42.9121C211.282 42.9121 214.198 41.8033 216.292 39.5859C218.427 37.3684 219.454 34.4118 219.454 30.7571C219.454 27.1434 218.468 24.2689 216.456 22.1747C214.526 20.0804 211.693 19.0538 208.161 19.0538ZM212.391 36.5471C211.405 37.8201 209.845 38.4361 207.915 38.4361C205.944 38.4361 204.424 37.8201 203.316 36.465C202.207 35.192 201.673 33.3441 201.673 31.0035C201.673 28.5807 202.248 26.7328 203.316 25.4187C204.424 24.1047 205.944 23.4477 207.874 23.4477C209.722 23.4477 211.241 24.0636 212.309 25.3366C213.376 26.6096 213.951 28.4575 213.951 30.8803C213.951 33.3441 213.417 35.2741 212.391 36.5471ZM247.993 23.9404V19.5466H242.614V12.812L242.45 12.8531L237.358 14.3725L237.235 14.4135V19.5466H229.186V16.6721C229.186 15.358 229.514 14.3314 230.089 13.6744C230.664 13.0174 231.527 12.6888 232.594 12.6888C233.333 12.6888 234.114 12.8531 234.976 13.2227L235.181 13.3459V8.70561L235.058 8.66455C234.319 8.41816 233.333 8.25391 232.06 8.25391C230.459 8.25391 229.063 8.62348 227.79 9.23945C226.517 9.93754 225.572 10.882 224.874 12.155C224.176 13.3869 223.807 14.7831 223.807 16.3846V19.5466H220.07V23.8994H223.807V42.2961H229.186V23.9404H237.235V35.6437C237.235 40.4482 239.493 42.871 244.01 42.871C244.749 42.871 245.53 42.7478 246.269 42.6246C247.049 42.4604 247.624 42.2551 247.952 42.0908L247.993 42.0497V37.6559L247.788 37.8201C247.46 38.0254 247.172 38.1897 246.679 38.3129C246.269 38.4361 245.899 38.4771 245.612 38.4771C244.544 38.4771 243.805 38.2308 243.271 37.6148C242.778 37.0399 242.532 36.0954 242.532 34.6992V23.9404H247.993Z" fill="black"/>
<path d="M0.00683594 0H25.1792V25.1723H0.00683594V0Z" fill="black"/>
<path d="M27.8071 0H52.9795V25.1723H27.8071V0Z" fill="black"/>
<path d="M0.0065918 27.8005H25.1789V52.9728H0.0065918V27.8005Z" fill="black"/>
<path d="M27.8071 27.8005H52.9795V52.9728H27.8071V27.8005Z" fill="black"/>
</g>
<defs>
<clipPath id="clip0_525_13">
<rect width="248" height="52.9728" fill="white"/>
</clipPath>
</defs>
</svg>
