<svg width="285" height="117" viewBox="0 0 285 117" fill="none" xmlns="http://www.w3.org/2000/svg">
<path d="M192.281 32.4492H198.315V72.8193H192.281V32.4492Z" fill="black"/>
<path d="M115.435 46.1918C107.834 46.1918 101.643 51.9688 101.643 59.9245C101.643 67.831 107.834 73.6573 115.435 73.6573C123.036 73.6573 129.227 67.831 129.227 59.9245C129.227 51.959 123.036 46.1918 115.435 46.1918ZM115.435 68.245C111.275 68.245 107.686 64.8143 107.686 59.9245C107.686 54.9855 111.275 51.6041 115.435 51.6041C119.595 51.6041 123.184 54.9855 123.184 59.9245C123.184 64.8143 119.595 68.245 115.435 68.245Z" fill="black"/>
<path d="M79.6392 50.4013V56.2276H93.579C93.1649 59.5006 92.0706 61.8962 90.4045 63.5623C88.3737 65.5931 85.1993 67.831 79.6392 67.831C71.0525 67.831 64.3488 60.9104 64.3488 52.3237C64.3488 43.737 71.0525 36.8263 79.6392 36.8263C84.2726 36.8263 87.6541 38.6501 90.1482 40.9866L94.2592 36.8756C90.7693 33.5435 86.1457 31 79.6392 31C67.8781 31 58 40.5725 58 52.3336C58 64.0946 67.888 73.6671 79.6392 73.6671C85.988 73.6671 90.7693 71.587 94.5155 67.6831C98.3701 63.8285 99.563 58.4261 99.563 54.0489C99.563 52.6983 99.4546 51.4463 99.2475 50.4112H79.6392V50.4013Z" fill="black"/>
<path d="M214.857 68.245C211.791 68.245 209.603 66.8451 208.193 64.0848L226.559 56.484L225.938 54.9263C224.794 51.8604 221.304 46.1819 214.177 46.1819C207.099 46.1819 201.223 51.7519 201.223 59.9147C201.223 67.6141 207.049 73.6474 214.857 73.6474C221.157 73.6474 224.794 69.7928 226.303 67.5648L221.62 64.4397C220.062 66.7367 217.933 68.245 214.857 68.245ZM214.394 51.4956C216.789 51.4956 218.82 52.6885 219.491 54.4137L207.217 59.5105C207.059 54.1968 211.318 51.4956 214.394 51.4956Z" fill="black"/>
<path d="M182.393 49.2578H182.186C180.836 47.641 178.233 46.1918 174.95 46.1918C168.079 46.1918 161.789 52.2251 161.789 59.9837C161.789 67.6831 168.089 73.6672 174.95 73.6672C178.223 73.6672 180.826 72.2081 182.186 70.542H182.393V72.5236C182.393 77.7781 179.584 80.5877 175.059 80.5877C171.362 80.5877 169.075 77.9358 168.138 75.698L162.884 77.8865C164.392 81.5243 168.394 86 175.059 86C182.137 86 188.121 81.8398 188.121 71.6955V47.0199H182.393V49.2578ZM175.473 68.245C171.313 68.245 167.823 64.7552 167.823 59.9738C167.823 55.1334 171.313 51.5942 175.473 51.5942C179.584 51.5942 182.807 55.1334 182.807 59.9738C182.807 64.765 179.584 68.245 175.473 68.245Z" fill="black"/>
<path d="M145.503 46.1918C137.902 46.1918 131.711 51.9688 131.711 59.9245C131.711 67.831 137.902 73.6573 145.503 73.6573C153.104 73.6573 159.295 67.831 159.295 59.9245C159.295 51.959 153.104 46.1918 145.503 46.1918ZM145.503 68.245C141.343 68.245 137.754 64.8143 137.754 59.9245C137.754 54.9855 141.343 51.6041 145.503 51.6041C149.663 51.6041 153.252 54.9855 153.252 59.9245C153.262 64.8143 149.673 68.245 145.503 68.245Z" fill="black"/>
</svg>
