<svg width="285" height="117" viewBox="0 0 285 117" fill="none" xmlns="http://www.w3.org/2000/svg">
<g clip-path="url(#clip0_101_286)">
<path d="M224.21 57.5911L234 83.5079C231.115 83.0959 228.231 82.5798 225.295 82.1148L219.78 67.7948L214.114 80.9327C211.333 80.4677 208.601 80.3129 205.82 79.9518L215.763 57.283L206.744 34.0485H215.092L220.14 47.03L225.551 34.0485H233.998L224.21 57.5911ZM200.153 34.0485H192.579V78.9741C195.053 79.1292 197.628 79.2313 200.153 79.5396V34.0485ZM186.036 78.4582C179.133 77.9948 172.228 77.5844 165.171 77.4278V34.0487H172.898V70.1126C177.329 70.2149 181.759 70.5744 186.036 70.7804V78.4582ZM156.926 51.6181V59.3452H146.365V76.9133H138.741V34.0485H160.38V41.7757H146.366V51.6183H156.927L156.926 51.6181ZM125.756 41.7757V77.3255C123.18 77.3255 120.553 77.3255 118.028 77.4278V41.7757H110.042V34.0485H133.792V41.7757H125.756ZM101.696 59.7559C98.2967 59.7559 94.2772 59.7559 91.3921 59.9125V71.4002C95.9259 71.0903 100.46 70.7308 105.044 70.576V77.9948L83.6649 79.6963V34.0485H105.043V41.7757H91.3919V52.1835C94.3809 52.1835 98.9658 52.0287 101.696 52.0287V59.7575L101.696 59.7559ZM58.8807 55.4281V82.4247C56.101 82.7346 53.6264 83.0957 51 83.5079V34.0485H58.3679L68.4133 62.1284V34.0485H76.1421V80.3129C73.4119 80.7778 70.6291 80.9327 67.6928 81.3433L58.8807 55.4281Z" fill="black"/>
</g>
<defs>
<clipPath id="clip0_101_286">
<rect width="183" height="49.5564" fill="white" transform="translate(51 34)"/>
</clipPath>
</defs>
</svg>
