<svg width="285" height="117" viewBox="0 0 285 117" fill="none" xmlns="http://www.w3.org/2000/svg">
<g clip-path="url(#clip0_101_180)">
<path d="M142.614 41.696C146.197 41.696 149.34 40.2969 152.043 37.4986C154.746 34.7003 156.098 31.4464 156.098 27.7369C156.098 27.3295 156.066 26.7505 156.002 26C155.53 26.0643 155.176 26.1179 154.94 26.1608C151.636 26.6326 148.728 28.2515 146.218 31.0176C143.708 33.7837 142.453 36.7428 142.453 39.8949C142.453 40.2594 142.507 40.8598 142.614 41.696ZM155.455 90.8749C158.008 90.8749 160.829 89.1274 163.919 85.6322C167.008 82.137 169.368 78.0307 170.999 73.3133C164.927 70.1827 161.891 65.6905 161.891 59.8366C161.891 54.9477 164.348 50.7664 169.261 47.2926C165.849 43.0255 161.344 40.8919 155.744 40.8919C153.384 40.8919 151.228 41.2457 149.276 41.9533L148.053 42.4036L146.411 43.0469C145.339 43.4543 144.362 43.6581 143.483 43.6581C142.796 43.6581 141.895 43.4222 140.779 42.9504L139.524 42.4358L138.334 41.9533C136.596 41.2243 134.729 40.8598 132.734 40.8598C127.392 40.8598 123.101 42.661 119.861 46.2634C116.621 49.8657 115.001 54.6153 115.001 60.512C115.001 68.8103 117.597 76.4761 122.789 83.5093C126.394 88.4197 129.687 90.8749 132.669 90.8749C133.935 90.8749 135.19 90.6283 136.435 90.1351L138.012 89.4918L139.267 89.0415C141.026 88.4197 142.646 88.1088 144.126 88.1088C145.693 88.1088 147.495 88.5055 149.533 89.2988L150.531 89.6848C152.612 90.4782 154.253 90.8749 155.455 90.8749Z" fill="black"/>
</g>
<defs>
<clipPath id="clip0_101_180">
<rect width="56" height="64.8749" fill="white" transform="translate(115 26)"/>
</clipPath>
</defs>
</svg>
