<svg width="285" height="117" viewBox="0 0 285 117" fill="none" xmlns="http://www.w3.org/2000/svg">
<g clip-path="url(#clip0_101_223)">
<path fill-rule="evenodd" clip-rule="evenodd" d="M103.266 42.3646C102.503 39.5014 100.244 37.243 97.3704 36.4689C92.1746 35.0797 71.3276 35.0797 71.3276 35.0797C71.3276 35.0797 50.4913 35.0797 45.2848 36.4689C42.422 37.2323 40.1633 39.491 39.3892 42.3646C38 47.5603 38 58.4079 38 58.4079C38 58.4079 38 69.2557 39.3892 74.4515C40.1526 77.3146 42.4113 79.573 45.2848 80.3471C50.4913 81.7363 71.3276 81.7363 71.3276 81.7363C71.3276 81.7363 92.1746 81.7363 97.3704 80.3471C100.234 79.5837 102.492 77.325 103.266 74.4515C104.655 69.2557 104.655 58.4082 104.655 58.4082C104.655 58.4082 104.655 47.5603 103.266 42.3646Z" fill="#FF0000"/>
<path fill-rule="evenodd" clip-rule="evenodd" d="M64.6687 68.4074L81.9845 58.4079L64.6687 48.4087V68.4074Z" fill="white"/>
<path fill-rule="evenodd" clip-rule="evenodd" d="M134.749 77.5264C133.434 76.6359 132.49 75.2574 131.939 73.3807C131.387 71.5037 131.101 69.0118 131.101 65.8941V61.6527C131.101 58.5035 131.419 55.9799 132.055 54.0709C132.691 52.1624 133.688 50.7734 135.035 49.9037C136.382 49.0343 138.153 48.589 140.347 48.589C142.511 48.589 144.239 49.0343 145.543 49.9251C146.847 50.8156 147.802 52.2048 148.406 54.0922C149.011 55.9799 149.308 58.5035 149.308 61.642V65.8837C149.308 69.0011 149.011 71.5037 148.427 73.3911C147.844 75.2785 146.89 76.6677 145.565 77.5371C144.25 78.4066 142.458 78.8524 140.199 78.8524C137.887 78.8625 136.063 78.4172 134.749 77.5264ZM142.139 72.9458C142.5 71.9914 142.691 70.4326 142.691 68.2802V59.1716C142.691 57.0718 142.511 55.545 142.139 54.5696C141.779 53.6045 141.132 53.1167 140.21 53.1167C139.319 53.1167 138.693 53.6045 138.322 54.5696C137.962 55.5343 137.771 57.0718 137.771 59.1716V68.2802C137.771 70.4433 137.94 72.0021 138.29 72.9458C138.64 73.9002 139.277 74.3772 140.199 74.3772C141.132 74.3772 141.768 73.9002 142.139 72.9458ZM235.983 65.9684V67.4426C235.983 69.3193 236.036 70.7189 236.152 71.6626C236.258 72.5959 236.492 73.285 236.842 73.7095C237.191 74.1334 237.732 74.3561 238.464 74.3561C239.45 74.3561 240.129 73.9744 240.489 73.2108C240.85 72.4474 241.051 71.1749 241.083 69.3935L246.756 69.7223C246.788 69.9766 246.798 70.3265 246.798 70.7718C246.798 73.476 246.056 75.4905 244.582 76.8266C243.108 78.1627 241.019 78.8307 238.315 78.8307C235.071 78.8307 232.802 77.8128 231.497 75.7769C230.193 73.741 229.546 70.6022 229.546 66.3397V61.2392C229.546 56.8493 230.225 53.6574 231.571 51.6324C232.918 49.6176 235.23 48.6101 238.506 48.6101C240.765 48.6101 242.493 49.0239 243.702 49.8508C244.911 50.6778 245.759 51.9607 246.258 53.7105C246.745 55.4601 247 57.878 247 60.9529V65.958H235.983V65.9684ZM236.82 53.6681C236.491 54.0818 236.269 54.7603 236.152 55.6935C236.035 56.6266 235.983 58.0583 235.983 59.9561V62.0558H240.797V59.9561C240.797 58.0791 240.733 56.6583 240.606 55.6935C240.479 54.7285 240.245 54.0393 239.917 53.647C239.588 53.2546 239.068 53.0532 238.368 53.0532C237.669 53.0425 237.149 53.2546 236.82 53.6681ZM118.737 65.4171L111.251 38.3881H117.783L120.402 50.6356C121.07 53.6576 121.558 56.2238 121.876 58.355H122.066C122.289 56.828 122.777 54.2725 123.541 50.6778L126.255 38.3774H132.787L125.216 65.4171V78.3855H118.737V65.4171ZM170.547 49.1617V78.3748H165.404L164.831 74.8014H164.693C163.294 77.5053 161.194 78.8521 158.405 78.8521C156.465 78.8521 155.034 78.2159 154.111 76.9433C153.189 75.6708 152.733 73.6881 152.733 70.9842V49.1617H159.307V70.6129C159.307 71.9172 159.445 72.8504 159.731 73.4018C160.017 73.9531 160.495 74.2394 161.163 74.2394C161.735 74.2394 162.287 74.0695 162.806 73.7199C163.326 73.37 163.718 72.9244 163.973 72.3838V49.1614L170.547 49.1617ZM204.288 49.1617V78.3748H199.145L198.572 74.8014H198.435C197.035 77.5053 194.935 78.8521 192.147 78.8521C190.206 78.8521 188.775 78.2159 187.852 76.9433C186.93 75.6708 186.474 73.6881 186.474 70.9842V49.1617H193.048V70.6129C193.048 71.9172 193.186 72.8504 193.472 73.4018C193.758 73.9531 194.236 74.2394 194.904 74.2394C195.476 74.2394 196.028 74.0695 196.547 73.7199C197.067 73.37 197.459 72.9244 197.714 72.3838V49.1614L204.288 49.1617Z" fill="#282828"/>
<path fill-rule="evenodd" clip-rule="evenodd" d="M188.425 43.6796H181.893V78.3748H175.456V43.6796H168.925V38.3884H188.414V43.6796H188.425ZM226.057 53.8377C225.655 51.9928 225.018 50.6567 224.128 49.8297C223.237 49.0025 222.018 48.589 220.459 48.589C219.25 48.589 218.126 48.9282 217.076 49.6176C216.026 50.2961 215.221 51.1976 214.648 52.3109H214.595V36.9142H208.254V78.3855H213.683L214.351 75.618H214.489C214.998 76.6041 215.761 77.3782 216.779 77.9506C217.797 78.5233 218.921 78.8096 220.162 78.8096C222.389 78.8096 224.022 77.781 225.072 75.7344C226.121 73.6881 226.641 70.4857 226.641 66.1276V61.5042C226.651 58.2383 226.45 55.6826 226.057 53.8377ZM220.024 65.7563C220.024 67.8879 219.939 69.5525 219.759 70.7614C219.589 71.9703 219.292 72.8291 218.879 73.3382C218.465 73.847 217.914 74.1016 217.214 74.1016C216.673 74.1016 216.175 73.9744 215.708 73.7199C215.252 73.4653 214.871 73.0836 214.584 72.5745V55.9799C214.807 55.1844 215.189 54.5378 215.73 54.0289C216.27 53.5198 216.853 53.2653 217.49 53.2653C218.158 53.2653 218.677 53.5302 219.038 54.0498C219.398 54.5696 219.653 55.4601 219.801 56.6901C219.939 57.9308 220.013 59.6911 220.013 61.9813V65.7563H220.024Z" fill="#282828"/>
</g>
<defs>
<clipPath id="clip0_101_223">
<rect width="209" height="46.816" fill="white" transform="translate(38 35)"/>
</clipPath>
</defs>
</svg>
