<svg width="285" height="117" viewBox="0 0 285 117" fill="none" xmlns="http://www.w3.org/2000/svg">
<g clip-path="url(#clip0_101_307)">
<path d="M83.6895 39.9968C72.4041 39.9968 63 44.784 63 59.2288C63 70.6722 69.3237 77.878 83.9804 77.878C101.232 77.878 102.338 66.5136 102.338 66.5136H93.9791C93.9791 66.5136 92.1869 72.6329 83.4707 72.6329C76.3716 72.6329 71.2658 67.8372 71.2658 61.1159H103.213V56.8976C103.213 50.2479 98.9915 39.9968 83.6895 39.9968ZM83.3976 45.3876C90.1552 45.3876 94.762 49.5274 94.762 55.7321H71.4504C71.4504 49.1447 77.464 45.3876 83.3976 45.3876Z" fill="black"/>
<path d="M103.207 26.0093V70.6241C103.207 73.1565 103.026 76.7125 103.026 76.7125H110.999C110.999 76.7125 111.285 74.1587 111.285 71.8244C111.285 71.8244 115.225 77.9874 125.936 77.9874C137.215 77.9874 144.876 70.1561 144.876 58.9374C144.876 48.5 137.839 40.1056 125.954 40.1056C114.824 40.1056 111.366 46.1155 111.366 46.1155V26.0093H103.207ZM123.896 45.624C131.556 45.624 136.427 51.3088 136.427 58.9374C136.427 67.1178 130.801 72.4691 123.951 72.4691C115.776 72.4691 111.366 66.0856 111.366 59.01C111.366 52.4168 115.323 45.624 123.896 45.624Z" fill="black"/>
<path d="M164.692 39.9968C147.714 39.9968 146.625 49.2926 146.625 50.7784H155.076C155.076 50.7784 155.519 45.3513 164.109 45.3513C169.691 45.3513 174.016 47.9066 174.016 52.8181V54.5665H164.109C150.956 54.5665 144.003 58.4144 144.003 66.2228C144.003 73.9068 150.427 78.0878 159.11 78.0878C170.943 78.0878 174.754 71.5495 174.754 71.5495C174.754 74.1502 174.955 76.713 174.955 76.713H182.467C182.467 76.713 182.176 73.5365 182.176 71.5042V53.9383C182.176 42.4202 172.885 39.9968 164.692 39.9968ZM174.016 59.8116V62.1427C174.016 65.1832 172.14 72.7423 161.095 72.7423C155.046 72.7423 152.453 69.7238 152.453 66.2222C152.453 59.8527 161.186 59.8116 174.016 59.8116Z" fill="black"/>
<path d="M177.625 41.4548H187.132L200.776 68.7893L214.388 41.4548H223L198.205 90.1187H189.172L196.326 76.5529L177.625 41.4548Z" fill="black"/>
</g>
<defs>
<clipPath id="clip0_101_307">
<rect width="160" height="64.128" fill="white" transform="translate(63 26)"/>
</clipPath>
</defs>
</svg>
