<svg width="285" height="117" viewBox="0 0 285 117" fill="none" xmlns="http://www.w3.org/2000/svg">
<g clip-path="url(#clip0_101_282)">
<path d="M155.274 30.0073C157.229 30.0097 159.183 30.0004 161.139 30.0131C161.136 31.5042 161.136 32.9953 161.139 34.4864C159.183 34.4888 157.229 34.4864 155.274 34.4888V30.0073ZM101.301 36.5364C103.88 35.5682 107.327 36.2721 108.634 38.9006C109.669 37.6553 111.007 36.5724 112.642 36.2813C114.691 35.9242 117.084 36.1515 118.638 37.6669C120.028 39.0606 120.378 41.1245 120.433 43.0098C120.438 46.8176 120.429 50.6265 120.436 54.4331C118.493 54.4273 116.546 54.4331 114.602 54.4308C114.618 51.1645 114.599 47.8982 114.614 44.6331C114.605 43.709 114.58 42.7153 114.05 41.9176C113.244 40.7106 111.31 40.6491 110.306 41.6347C109.575 42.4429 109.531 43.6035 109.499 44.632C109.487 47.8913 109.499 51.1541 109.496 54.4169C107.526 54.4459 105.555 54.4227 103.583 54.4331C103.585 51.0462 103.583 47.6594 103.589 44.276C103.58 43.2881 103.476 42.1785 102.752 41.4399C101.589 40.4903 99.5271 40.968 98.9647 42.3883C98.5067 43.4875 98.4743 44.705 98.4615 45.8772C98.4615 48.7296 98.4615 51.5808 98.465 54.4319C96.5159 54.4296 94.5656 54.4319 92.6189 54.4296C92.6316 48.5162 92.6247 42.6052 92.6224 36.6918C94.5054 36.6918 96.3895 36.6883 98.2714 36.6953C98.2656 37.4884 98.2598 38.2849 98.2401 39.0815C99.054 38.0217 100.013 37.0014 101.301 36.5364ZM149.095 37.377C150.499 36.3323 152.352 36.1573 154.038 36.4216C154.031 38.1983 154.029 39.9751 154.035 41.7518C152.7 41.4851 151.269 41.2578 149.962 41.775C148.439 42.3489 147.408 43.949 147.471 45.57C147.465 48.5244 147.471 51.4776 147.471 54.4343C145.505 54.4319 143.539 54.4343 141.57 54.4319C141.572 48.5186 141.572 42.6075 141.57 36.6941C143.475 36.6906 145.377 36.6906 147.279 36.6941C147.279 37.7098 147.272 38.7302 147.253 39.7494C147.737 38.8716 148.252 37.9568 149.095 37.377ZM163.072 41.5129C164.069 38.9829 166.359 37.0373 169.006 36.4344C171.978 35.7514 175.351 36.1886 177.786 38.1203C179.353 39.3366 180.157 41.2555 180.425 43.1803C178.539 43.2035 176.649 43.1896 174.763 43.1896C174.56 42.6388 174.449 42.0173 174.032 41.5767C172.818 40.2317 170.482 40.3639 169.26 41.6219C168.237 42.7849 168.12 44.4163 168.125 45.8912C168.12 47.2362 168.442 48.6797 169.422 49.6607C170.536 50.7367 172.428 50.7552 173.648 49.8439C174.418 49.2734 174.644 48.2994 174.929 47.4356C176.795 47.4426 178.661 47.4391 180.527 47.4356C180.343 49.6317 179.288 51.7628 177.519 53.1078C173.322 56.2883 166.323 55.4245 163.546 50.7633C161.896 48.0014 161.894 44.4534 163.072 41.5129ZM205.767 39.034C207.79 36.0738 212.12 35.3224 215.188 37.0048C216.952 38.0113 217.73 40.1018 217.768 42.0486C217.816 46.1752 217.765 50.3007 217.792 54.4308C215.852 54.4331 213.911 54.4273 211.973 54.4331C211.968 51.0845 211.986 47.7336 211.966 44.3838C211.936 43.309 211.843 41.9906 210.819 41.3715C209.572 40.6909 207.783 40.8115 206.83 41.9431C206.057 42.8533 205.898 44.1032 205.912 45.2558C205.927 48.3145 205.912 51.3709 205.924 54.4296C203.976 54.4319 202.03 54.4296 200.082 54.4319C200.091 48.5174 200.086 42.604 200.082 36.6906C201.986 36.6872 203.886 36.6906 205.791 36.6871C205.787 37.4721 205.78 38.2536 205.767 39.034ZM155.272 36.6883C157.229 36.6953 159.183 36.686 161.139 36.6953C161.136 42.6052 161.136 48.5162 161.139 54.4261C159.183 54.4354 157.229 54.4261 155.274 54.4319C155.274 48.5197 155.274 42.6063 155.272 36.6883ZM82.5916 30.0143C80.411 30.0006 78.2304 30.0025 76.0498 30.0201C73.0676 38.1678 69.8941 46.2483 67 54.4273C69.174 54.4401 71.3446 54.4273 73.5163 54.4331C74.0288 52.9872 74.5401 51.5367 75.0341 50.085C77.8725 50.0815 80.7086 50.0723 83.547 50.0908C84.0352 51.5379 84.5384 52.9814 85.0289 54.4273C87.2655 54.4366 89.4987 54.4273 91.7365 54.4331C88.6766 46.2958 85.6364 38.1551 82.5916 30.0143ZM76.5252 45.3207C77.4551 42.466 78.4024 39.6172 79.2813 36.7451C80.246 39.5882 81.104 42.4614 82.0212 45.3207C80.1892 45.3184 78.3572 45.3184 76.5252 45.3207ZM140.516 46.988C140.604 43.9444 139.868 40.6491 137.591 38.4832C134.008 35.1404 127.826 35.4303 124.367 38.8148C120.38 42.5391 120.649 49.9343 125.107 53.1751C128.112 55.2621 132.186 55.4755 135.558 54.2105C137.853 53.3664 139.589 51.3686 140.229 49.0229C138.419 49.0206 136.609 49.0171 134.803 49.0264C133.671 51.2387 130.381 51.626 128.621 49.9795C127.793 49.2143 127.567 48.0629 127.363 47.0089C131.746 46.9683 136.13 47.0066 140.516 46.988ZM128.637 41.157C129.808 39.9082 131.982 39.7007 133.269 40.8915C134.13 41.5767 134.49 42.6608 134.662 43.7078C132.237 43.7148 129.812 43.7148 127.388 43.7078C127.659 42.8011 127.936 41.8376 128.637 41.157ZM198.713 42.6921C198.706 41.0677 198.48 39.2798 197.264 38.0878C195.708 36.5677 193.418 36.2465 191.341 36.1538C188.819 36.0703 186.058 36.2871 183.984 37.871C182.638 38.8751 182.032 40.5285 181.876 42.1495C183.69 42.1669 185.507 42.1495 187.318 42.1622C187.632 41.47 187.902 40.6619 188.638 40.3071C189.833 39.7053 191.408 39.8027 192.497 40.5946C193.418 41.2092 193.303 42.9171 192.175 43.2209C189.232 44.0487 185.918 43.7055 183.247 45.3914C181.205 46.6715 180.828 49.4485 181.526 51.5877C182.061 53.2574 183.626 54.4076 185.301 54.7554C187.991 55.3514 191.059 54.8007 193.105 52.8655C193.209 53.3861 193.32 53.9079 193.429 54.4308C195.193 54.4273 196.952 54.4424 198.719 54.4215C198.71 50.5117 198.715 46.6008 198.713 42.6921ZM191.728 50.7413C190.63 51.4579 189.095 51.5912 187.928 50.9639C186.717 50.2752 186.792 48.2936 188.013 47.6536C189.566 46.8048 191.411 46.8373 193.055 46.2321C193.013 47.7776 193.08 49.6827 191.728 50.7413ZM182.58 56.7474C184.528 56.744 186.469 56.744 188.416 56.7474C188.413 64.8859 188.406 73.022 188.42 81.1639C186.472 81.1662 184.528 81.1639 182.578 81.1639C182.587 73.0266 182.582 64.8859 182.58 56.7474ZM155.711 66.4779C156.756 63.8261 159.815 62.5078 162.521 63.1745C162.501 64.9415 162.507 66.7109 162.519 68.4791C161.065 68.173 159.468 67.933 158.096 68.6554C156.705 69.2977 155.915 70.8317 155.908 72.3263C155.897 75.2703 155.904 78.2165 155.913 81.1628C153.965 81.1651 152.017 81.1628 150.07 81.1651C150.089 75.2297 150.056 69.2977 150.085 63.3635C151.972 63.3728 153.86 63.3658 155.741 63.3693C155.749 64.4056 155.739 65.4419 155.711 66.4779ZM82.754 56.744C80.5811 56.744 78.407 56.7474 76.2342 56.744C73.1731 64.8789 70.1515 73.0266 67.0858 81.1593C69.2877 81.1709 71.4907 81.1686 73.6879 81.1616L75.1987 76.8367C78.0383 76.7706 80.8767 76.7706 83.7128 76.8251C84.2068 78.2698 84.7065 79.7122 85.1947 81.1616C87.4313 81.1686 89.668 81.1686 91.9058 81.1616C88.8285 73.0324 85.8115 64.8836 82.754 56.744ZM76.7061 72.0573C77.6042 69.215 78.5229 66.3792 79.4622 63.5502C80.4443 66.3573 81.2976 69.2084 82.1649 72.0515C80.3445 72.0573 78.5253 72.0515 76.7061 72.0573ZM181.6 73.7223C181.702 70.608 180.925 67.2269 178.532 65.0668C174.861 61.8225 168.68 62.2179 165.297 65.7056C161.294 69.6456 161.877 77.4292 166.845 80.3221C169.925 82.0614 173.855 82.1506 177.079 80.7535C179.185 79.8525 180.698 77.9382 181.323 75.7596C179.507 75.748 177.686 75.7526 175.871 75.7596C174.724 78.0264 171.296 78.3684 169.583 76.577C168.847 75.8175 168.652 74.7357 168.455 73.7397C172.837 73.6957 177.217 73.7328 181.6 73.7223ZM168.491 70.3819C168.755 69.4925 169.043 68.5568 169.718 67.8843C170.854 66.69 172.891 66.4489 174.211 67.482C175.157 68.144 175.535 69.2908 175.781 70.3621C173.349 70.4155 170.92 70.3865 168.491 70.3819ZM108.732 65.1015C106.963 63.1443 104.047 62.4475 101.532 63.0945C100.212 63.4296 99.1793 64.3746 98.3259 65.3868C98.3409 64.7154 98.3537 64.0464 98.3607 63.3739C96.4939 63.3704 94.6259 63.3739 92.7592 63.3704C92.7418 71.248 92.765 79.1209 92.7453 86.9973H98.6528C98.6273 84.4325 98.6842 81.8677 98.5879 79.3053C100.861 82.2527 105.551 82.4776 108.306 80.103C110.409 78.271 111.248 75.3746 111.253 72.6637C111.237 69.9795 110.596 67.1237 108.732 65.1015ZM103.981 76.4065C102.615 77.7481 99.9828 77.406 99.1016 75.6691C98.407 74.3531 98.3734 72.8087 98.4418 71.3547C98.5218 69.874 99.1908 68.2472 100.638 67.6292C101.823 67.097 103.368 67.3278 104.229 68.34C105.171 69.4276 105.405 70.9373 105.398 72.3275C105.328 73.7722 105.042 75.3456 103.981 76.4065ZM128.506 65.3949C126.734 63.1977 123.584 62.3721 120.91 63.1374C119.635 63.5026 118.622 64.4175 117.834 65.4517C117.838 64.7572 117.841 64.0638 117.841 63.3681C115.986 63.3716 114.132 63.3681 112.277 63.3716C112.271 71.2457 112.277 79.1209 112.271 86.995H118.137C118.121 84.4302 118.161 81.8654 118.111 79.3029C120.357 82.2446 125.029 82.4765 127.778 80.1285C129.738 78.4554 130.629 75.8291 130.738 73.3165C130.854 70.5419 130.3 67.5898 128.506 65.3949ZM123.612 76.2941C122.283 77.7481 119.558 77.4675 118.628 75.7004C117.903 74.2858 117.839 72.6231 117.982 71.0694C118.119 69.605 118.889 68.0501 120.358 67.5434C121.421 67.1689 122.713 67.3394 123.539 68.1417C124.58 69.1227 124.887 70.63 124.912 72.004C124.914 73.5067 124.635 75.13 123.612 76.2941ZM148.812 68.8548C148.819 67.2965 148.368 65.6268 147.143 64.5833C145.634 63.2997 143.577 62.9843 141.665 62.8846C139.112 62.7791 136.334 62.9704 134.192 64.5183C132.79 65.5155 132.132 67.2188 132.026 68.8861C133.833 68.8884 135.639 68.8931 137.446 68.8861C137.745 68.1556 138.057 67.3196 138.838 66.9857C140.018 66.4535 141.509 66.5497 142.586 67.2779C143.505 67.8762 143.443 69.5679 142.337 69.9227C139.335 70.79 135.922 70.4074 133.224 72.2115C131.375 73.4661 130.984 76.0158 131.557 78.0449C131.971 79.6218 133.302 80.8427 134.839 81.3205C137.694 82.1935 141.001 81.6057 143.264 79.6148C143.346 80.1273 143.432 80.641 143.526 81.15C145.29 81.1686 147.052 81.157 148.818 81.1593C148.805 77.0617 148.825 72.9582 148.812 68.8548ZM142.258 77.0988C141.337 78.14 139.753 78.1864 138.491 77.8976C136.994 77.4988 136.732 75.2227 138.036 74.4424C139.597 73.5275 141.496 73.5844 143.166 72.9501C143.131 74.3554 143.2 75.9393 142.258 77.0988Z" fill="black"/>
<path d="M192.438 59.8862C192.269 60.0544 192.068 60.187 191.847 60.2762C191.626 60.3655 191.389 60.4094 191.151 60.4056C190.634 60.4056 190.199 60.2282 189.843 59.8734C189.669 59.7035 189.533 59.4998 189.441 59.2748C189.349 59.0498 189.305 58.8084 189.311 58.5655C189.311 58.0287 189.503 57.5823 189.885 57.2263C190.244 56.8935 190.666 56.7277 191.151 56.7277C191.659 56.7277 192.092 56.9063 192.45 57.2669C192.811 57.6263 192.99 58.0588 192.99 58.5667C192.99 59.0884 192.805 59.5267 192.438 59.8862ZM190.069 57.4999C189.928 57.639 189.816 57.8049 189.741 57.988C189.665 58.1711 189.628 58.3675 189.63 58.5655C189.63 58.991 189.779 59.354 190.077 59.6519C190.373 59.9511 190.73 60.1007 191.151 60.1007C191.568 60.1007 191.925 59.9488 192.221 59.6496C192.518 59.3482 192.665 58.9876 192.665 58.5655C192.665 58.1562 192.518 57.8014 192.223 57.4999C192.086 57.353 191.92 57.2363 191.736 57.1572C191.551 57.0781 191.352 57.0385 191.151 57.0408C190.729 57.0408 190.368 57.195 190.069 57.4999ZM190.346 59.5893V57.551C190.675 57.5511 191.004 57.5526 191.333 57.5556C191.495 57.5672 191.629 57.602 191.734 57.6611C191.915 57.7608 192.005 57.9232 192.005 58.1469C192.005 58.3185 191.958 58.4414 191.863 58.518C191.76 58.596 191.638 58.6435 191.509 58.6548C191.613 58.6712 191.711 58.7117 191.797 58.7731C191.917 58.8705 191.976 59.0212 191.976 59.2311V59.4119C191.976 59.453 191.983 59.4937 191.996 59.5325L192.017 59.5917H191.508C191.489 59.499 191.478 59.4046 191.477 59.3099C191.475 59.2254 191.464 59.1414 191.443 59.0595C191.431 59.0249 191.411 58.9935 191.385 58.9676C191.359 58.9418 191.327 58.922 191.292 58.9099C191.234 58.89 191.172 58.8795 191.11 58.8786L190.992 58.8705H190.881V59.5917L190.346 59.5893ZM191.318 57.9533C191.218 57.9204 191.113 57.9058 191.008 57.9104H190.878V58.5017H191.085C191.188 58.5083 191.29 58.4823 191.377 58.4275C191.449 58.3765 191.484 58.2977 191.484 58.1852C191.483 58.0739 191.428 57.9962 191.318 57.9533Z" fill="black"/>
</g>
<defs>
<clipPath id="clip0_101_282">
<rect width="150.794" height="57" fill="white" transform="translate(67 30)"/>
</clipPath>
</defs>
</svg>
