<svg width="285" height="117" viewBox="0 0 285 117" fill="none" xmlns="http://www.w3.org/2000/svg">
<g clip-path="url(#clip0_101_275)">
<path d="M106.556 62.5107L105.077 66.6992H104.954C104.708 65.7548 104.256 64.3175 103.517 62.5928L95.5915 42.6767H87.8303V74.4193H92.9633V54.8317C92.9633 53.5998 92.9633 52.2036 92.9223 50.4789C92.8812 49.6165 92.7991 48.9595 92.758 48.4667H92.8812C93.1276 49.6987 93.415 50.6021 93.6204 51.177L103.147 74.3372H106.761L116.206 50.9717C116.411 50.4378 116.616 49.3702 116.822 48.4667H116.945C116.822 50.8074 116.74 52.9017 116.698 54.1747V74.2961H122.16V42.5946H114.686L106.556 62.5107ZM127.334 51.5466H132.672V74.2961H127.334V51.5466ZM130.044 41.9375C129.141 41.9375 128.402 42.2661 127.786 42.8409C127.17 43.4158 126.841 44.155 126.841 45.0584C126.841 45.9208 127.17 46.6599 127.786 47.2348C128.402 47.8097 129.141 48.0972 130.044 48.0972C130.948 48.0972 131.728 47.7687 132.303 47.2348C132.919 46.6599 133.247 45.9208 133.247 45.0584C133.247 44.1961 132.919 43.4569 132.303 42.8409C131.769 42.2661 130.989 41.9375 130.044 41.9375ZM151.603 51.3412C150.617 51.1359 149.591 51.0127 148.605 51.0127C146.183 51.0127 143.965 51.5466 142.117 52.6142C140.269 53.6819 138.791 55.1602 137.846 57.0081C136.861 58.897 136.368 61.0735 136.368 63.5784C136.368 65.7548 136.861 67.6848 137.805 69.4505C138.75 71.1752 140.064 72.5714 141.83 73.5159C143.513 74.4604 145.484 74.9531 147.702 74.9531C150.248 74.9531 152.424 74.4193 154.149 73.4338L154.19 73.3927V68.465L153.985 68.6293C153.205 69.2042 152.301 69.6969 151.398 69.9844C150.453 70.3129 149.591 70.4771 148.852 70.4771C146.716 70.4771 145.033 69.8612 143.842 68.5061C142.61 67.192 141.994 65.3852 141.994 63.1267C141.994 60.786 142.61 58.9381 143.883 57.583C145.156 56.2279 146.84 55.5298 148.893 55.5298C150.617 55.5298 152.383 56.1047 153.985 57.2545L154.19 57.4187V52.2036L154.149 52.1625C153.451 51.8751 152.671 51.5466 151.603 51.3412ZM169.22 51.177C167.905 51.177 166.674 51.5876 165.606 52.45C164.702 53.1891 164.087 54.2568 163.553 55.5298H163.512V51.5466H158.173V74.2961H163.512V62.675C163.512 60.7039 163.922 59.0613 164.826 57.8704C165.729 56.6385 166.879 56.0226 168.275 56.0226C168.768 56.0226 169.261 56.1457 169.877 56.2279C170.451 56.3921 170.862 56.5564 171.15 56.7617L171.355 56.926V51.5876L171.232 51.5466C170.862 51.3002 170.123 51.177 169.22 51.177ZM183.756 51.0538C180.019 51.0538 177.022 52.1625 174.927 54.3389C172.792 56.5153 171.766 59.513 171.766 63.2909C171.766 66.8224 172.833 69.6969 174.886 71.7912C176.94 73.8444 179.732 74.9121 183.222 74.9121C186.877 74.9121 189.793 73.8033 191.887 71.5859C194.022 69.3684 195.049 66.4118 195.049 62.7571C195.049 59.1434 194.063 56.2689 192.051 54.1747C190.121 52.0804 187.288 51.0538 183.756 51.0538ZM188.027 68.5471C187.041 69.8201 185.481 70.4361 183.551 70.4361C181.621 70.4361 180.06 69.8201 178.952 68.465C177.843 67.192 177.309 65.3441 177.309 63.0035C177.309 60.5807 177.884 58.7328 178.952 57.4187C180.06 56.1047 181.58 55.4477 183.51 55.4477C185.399 55.4477 186.877 56.0636 187.945 57.3366C189.012 58.6096 189.587 60.4575 189.587 62.8803C189.505 65.3441 189.054 67.2741 188.027 68.5471ZM206.958 60.9913C205.274 60.2932 204.206 59.7594 203.713 59.3077C203.303 58.897 203.097 58.3221 203.097 57.583C203.097 56.967 203.344 56.3511 203.96 55.9404C204.576 55.5298 205.274 55.3245 206.301 55.3245C207.204 55.3245 208.148 55.4887 209.052 55.7351C209.955 55.9815 210.777 56.3511 211.434 56.8438L211.639 57.0081V51.9983L211.516 51.9572C210.9 51.7108 210.078 51.4644 209.093 51.2591C208.107 51.0949 207.204 51.0127 206.465 51.0127C203.919 51.0127 201.825 51.6287 200.182 52.9838C198.539 54.2568 197.759 55.9815 197.759 57.9936C197.759 59.0613 197.923 60.0058 198.293 60.786C198.663 61.5662 199.196 62.3054 199.936 62.9213C200.675 63.4962 201.742 64.1533 203.221 64.7692C204.453 65.3031 205.397 65.7137 205.972 66.0422C206.547 66.3707 206.916 66.7403 207.204 67.0278C207.409 67.3563 207.532 67.7669 207.532 68.3007C207.532 69.8201 206.383 70.5593 204.042 70.5593C203.139 70.5593 202.194 70.395 201.085 70.0254C199.977 69.6559 198.95 69.122 198.088 68.5061L197.882 68.3418V73.557L198.006 73.598C198.786 73.9676 199.73 74.214 200.88 74.5014C202.03 74.7068 203.056 74.871 203.96 74.871C206.711 74.871 208.97 74.2551 210.571 72.8999C212.214 71.5859 213.076 69.9023 213.076 67.7258C213.076 66.2065 212.665 64.8514 211.762 63.8248C210.571 62.8392 209.093 61.8126 206.958 60.9913ZM227.161 51.0538C223.424 51.0538 220.427 52.1625 218.332 54.3389C216.238 56.5153 215.17 59.513 215.17 63.2909C215.17 66.8224 216.238 69.6969 218.291 71.7912C220.344 73.8444 223.137 74.9121 226.627 74.9121C230.282 74.9121 233.198 73.8033 235.292 71.5859C237.427 69.3684 238.454 66.4118 238.454 62.7571C238.454 59.1434 237.468 56.2689 235.456 54.1747C233.526 52.0804 230.693 51.0538 227.161 51.0538ZM231.391 68.5471C230.405 69.8201 228.845 70.4361 226.915 70.4361C224.944 70.4361 223.424 69.8201 222.316 68.465C221.207 67.192 220.673 65.3441 220.673 63.0035C220.673 60.5807 221.248 58.7328 222.316 57.4187C223.424 56.1047 224.944 55.4477 226.874 55.4477C228.722 55.4477 230.241 56.0636 231.309 57.3366C232.376 58.6096 232.951 60.4575 232.951 62.8803C232.951 65.3441 232.417 67.2741 231.391 68.5471ZM266.993 55.9404V51.5466H261.614V44.812L261.45 44.8531L256.358 46.3725L256.235 46.4135V51.5466H248.186V48.6721C248.186 47.358 248.514 46.3314 249.089 45.6744C249.664 45.0174 250.527 44.6888 251.594 44.6888C252.333 44.6888 253.114 44.8531 253.976 45.2227L254.181 45.3459V40.7056L254.058 40.6645C253.319 40.4182 252.333 40.2539 251.06 40.2539C249.459 40.2539 248.063 40.6235 246.79 41.2394C245.517 41.9375 244.572 42.882 243.874 44.155C243.176 45.3869 242.807 46.7831 242.807 48.3846V51.5466H239.07V55.8994H242.807V74.2961H248.186V55.9404H256.235V67.6437C256.235 72.4482 258.493 74.871 263.01 74.871C263.749 74.871 264.53 74.7478 265.269 74.6246C266.049 74.4604 266.624 74.2551 266.952 74.0908L266.993 74.0497V69.6559L266.788 69.8201C266.46 70.0254 266.172 70.1897 265.679 70.3129C265.269 70.4361 264.899 70.4771 264.612 70.4771C263.544 70.4771 262.805 70.2308 262.271 69.6148C261.778 69.0399 261.532 68.0954 261.532 66.6992V55.9404H266.993Z" fill="black"/>
<path d="M19.007 32H44.1793V57.1723H19.007V32Z" fill="black"/>
<path d="M46.8071 32H71.9795V57.1723H46.8071V32Z" fill="black"/>
<path d="M19.0067 59.8005H44.1791V84.9728H19.0067V59.8005Z" fill="black"/>
<path d="M46.8071 59.8005H71.9795V84.9728H46.8071V59.8005Z" fill="black"/>
</g>
<defs>
<clipPath id="clip0_101_275">
<rect width="248" height="52.9728" fill="white" transform="translate(19 32)"/>
</clipPath>
</defs>
</svg>
