<svg width="285" height="117" viewBox="0 0 285 117" fill="none" xmlns="http://www.w3.org/2000/svg">
<path d="M123.752 66.2605L117.899 49.9934H114.75V28H54V88.7528H114.75V59.3837L120.665 74.1422H126.747L136.426 49.9934H129.652L123.752 66.2605Z" fill="black"/>
<path d="M145.048 49.9934H138.503V74.1422H145.048V49.9934Z" fill="black"/>
<path d="M155.56 57.0445C155.56 55.7078 156.754 54.6933 158.878 54.6933C161.227 54.6933 162.38 56.0778 162.518 57.5982H168.832C168.648 54.0488 166.158 49.4396 158.923 49.4396C152.98 49.4396 149.247 53.0344 149.247 57.4121C149.247 66.9981 162.657 63.1742 162.657 67.2296C162.657 68.5639 161.365 69.4399 158.878 69.4399C156.159 69.4399 154.961 67.9194 154.868 66.3059H148.232C148.554 70.8244 151.135 74.6936 158.694 74.6936C165.237 74.6936 168.925 71.285 168.925 66.9527C168.925 57.0445 155.56 61.0999 155.56 57.0445Z" fill="black"/>
<path d="M178.778 49.9934H172.233V74.1422H178.778V49.9934Z" fill="black"/>
<path d="M194.317 49.4396C186.576 49.4396 181.645 55.2017 181.645 62.0666C181.645 68.9315 186.576 74.6936 194.317 74.6936C202.058 74.6936 206.992 68.9339 206.992 62.0666C206.992 55.1994 202.06 49.4396 194.317 49.4396ZM194.317 68.9339C190.863 68.9339 188.19 66.3989 188.19 62.0666C188.19 57.7343 190.858 55.2017 194.317 55.2017C197.776 55.2017 200.447 57.7367 200.447 62.0666C200.447 66.3966 197.781 68.9339 194.317 68.9339Z" fill="black"/>
<path d="M223.106 49.4396C219.511 49.4396 217.024 50.8718 215.917 52.9437V49.9934H209.88V74.1422H216.425V60.317C216.425 57.0898 218.175 55.0657 221.354 55.0657C224.259 55.0657 225.457 57.0015 225.457 59.811V74.1446H232V59.071C232 53.3113 228.914 49.4396 223.106 49.4396Z" fill="black"/>
<path d="M75.2798 47.1314C75.9682 47.1234 76.6389 46.912 77.2074 46.5237C77.7759 46.1354 78.2169 45.5876 78.4748 44.9493C78.7327 44.311 78.7961 43.6106 78.6569 42.9364C78.5177 42.2621 78.1822 41.6441 77.6925 41.1601C77.2029 40.6761 76.5811 40.3478 75.9053 40.2164C75.2295 40.085 74.5299 40.1564 73.8946 40.4217C73.2593 40.687 72.7166 41.1342 72.3349 41.7072C71.9532 42.2802 71.7496 42.9532 71.7495 43.6417C71.7511 44.103 71.8437 44.5594 72.0222 44.9847C72.2007 45.4101 72.4614 45.7959 72.7895 46.1202C73.1175 46.4445 73.5064 46.7008 73.9337 46.8743C74.3611 47.0478 74.8186 47.1352 75.2798 47.1314Z" fill="white"/>
<path d="M67.9302 65.8261C67.7297 66.6871 67.6249 67.5677 67.6175 68.4517C67.6175 71.5261 69.2883 73.567 72.8282 73.567C75.7665 73.567 78.1487 71.8221 79.8625 69.0031L78.8171 73.2065H84.6508L87.9925 59.8396C88.8208 56.4429 90.4368 54.6766 92.8858 54.6766C94.812 54.6766 96.0103 55.8701 96.0103 57.8536C96.0192 58.4886 95.9315 59.1212 95.7501 59.7298L94.0315 65.8953C93.7863 66.7415 93.6634 67.6184 93.6663 68.4994C93.6663 71.4187 95.3849 73.5526 98.9797 73.5526C102.054 73.5526 104.503 71.5738 105.856 66.8333L103.565 65.9478C102.419 69.1248 101.417 69.6977 100.648 69.6977C99.8796 69.6977 99.4547 69.1773 99.4547 68.1366C99.4772 67.5896 99.5645 67.0471 99.7149 66.5207L101.386 60.5318C101.762 59.3 101.956 58.0197 101.961 56.7318C101.961 52.2514 99.2518 49.9122 95.9673 49.9122C92.8953 49.9122 89.7613 52.6859 88.205 55.6027L89.3531 50.3658H80.433L79.1823 54.9797H83.3523L80.7839 65.2556C78.7693 69.7359 75.0552 69.8075 74.6017 69.7049C73.8379 69.533 73.3509 69.2418 73.3509 68.2512C73.3742 67.4436 73.4969 66.6419 73.7161 65.8642L77.6236 50.3634H67.7249L66.4741 54.9773H70.5892L67.9302 65.8261Z" fill="white"/>
</svg>
