<svg width="285" height="117" viewBox="0 0 285 117" fill="none" xmlns="http://www.w3.org/2000/svg">
<g clip-path="url(#clip0_101_296)">
<path d="M91 38V40.8051H110.951V38H91ZM113.778 38V40.8051H142.21C142.21 40.8051 139.306 38 135.459 38H113.778ZM147.787 38V40.8051H164.988L163.967 38H147.787ZM177.32 38L176.299 40.8051H193.344V38H177.32ZM91 43.4553V46.2604H110.951V43.4553H91ZM113.778 43.4593V46.2605H145.509C145.509 46.2605 145.139 44.1015 144.492 43.4593H113.778ZM147.787 43.4593V46.2605H166.874L165.929 43.4593H147.787ZM175.278 43.4593L174.333 46.2605H193.344V43.4593H175.278ZM96.7335 48.9105V51.7196H105.374V48.9105H96.7335ZM119.512 48.9105V51.7196H128.152V48.9105H119.512ZM136.556 48.9105V51.7196H145.197C145.197 51.7196 145.745 50.2361 145.745 48.9105H136.556ZM153.521 48.9105V51.7196H168.84L167.819 48.9105H153.521ZM173.396 48.9105L172.371 51.7196H187.766V48.9105H173.396ZM96.7335 54.3699V57.175H105.374V54.3699H96.7335ZM119.512 54.3699V57.175H141.581C141.581 57.175 143.428 55.7357 144.016 54.3699H119.512ZM153.521 54.3699V57.175H162.161V55.6135L162.71 57.175H178.537L179.126 55.6135V57.175H187.766V54.3699H171.547L170.686 56.7458L169.821 54.3699H153.521ZM96.7335 59.8251V62.6302H105.374V59.8251H96.7335ZM119.512 59.8251V62.6302H144.016C143.427 61.2689 141.581 59.8251 141.581 59.8251H119.512ZM153.521 59.8251V62.6302H162.161V59.8251H153.521ZM163.731 59.8251L164.776 62.6302H176.643L177.636 59.8251H163.731ZM179.126 59.8251V62.6302H187.766V59.8251H179.126ZM96.7335 65.2804V68.0854H105.374V65.2804H96.7335ZM119.512 65.2804V68.0854H128.152V65.2804H119.512ZM136.556 65.2804V68.0854H145.745C145.745 66.7616 145.197 65.2804 145.197 65.2804H136.556ZM153.521 65.2804V68.0854H162.161V65.2804H153.521ZM165.693 65.2804L166.706 68.0854H174.662L175.683 65.2804H165.693ZM179.126 65.2804V68.0854H187.766V65.2804H179.126ZM91.1561 70.7356V73.5447H111.108V70.7356H91.1561ZM113.778 70.7356V73.5447H144.492C145.139 72.9016 145.509 70.7356 145.509 70.7356H113.778ZM147.944 70.7356V73.5447H162.161V70.7356H147.944ZM167.659 70.7356L168.7 73.5447H172.748L173.725 70.7356H167.659ZM179.126 70.7356V73.5447H193.5V70.7356H179.126ZM91.1561 76.1949V79H111.108V76.1949H91.1561ZM113.778 76.1949V78.996H135.459C139.306 78.996 142.21 76.1949 142.21 76.1949H113.778ZM147.944 76.1949V79H162.161V76.1949H147.944ZM169.633 76.1949L170.634 78.9921L170.806 78.996L171.823 76.1949H169.633ZM179.126 76.1949V79H193.5V76.1949H179.126Z" fill="black"/>
</g>
<defs>
<clipPath id="clip0_101_296">
<rect width="102.5" height="41" fill="white" transform="translate(91 38)"/>
</clipPath>
</defs>
</svg>
