<svg width="285" height="117" viewBox="0 0 285 117" fill="none" xmlns="http://www.w3.org/2000/svg">
<g clip-path="url(#clip0_101_313)">
<path d="M148.086 25.3432C147.636 25.4125 147.204 27.0685 146.335 27.9311C145.699 28.5537 144.906 28.5147 144.484 29.2844C144.324 29.5719 144.376 30.0628 144.194 30.5341C143.84 31.4766 142.59 31.5609 142.59 32.5878C142.586 33.6969 143.632 33.9087 144.538 34.6956C145.245 35.3291 145.314 35.7657 146.17 36.0727C146.901 36.3214 147.989 35.5085 148.968 35.8003C149.772 36.0404 150.542 36.2133 150.723 37.0391C150.883 37.8001 150.713 38.9804 149.738 38.8443C149.409 38.8075 147.984 38.3276 146.233 38.5135C144.121 38.7535 141.71 39.443 141.475 41.7975C141.345 43.1141 142.973 44.6663 144.545 44.3507C145.632 44.1365 145.118 42.8548 145.71 42.232C146.486 41.4344 150.883 45.0165 154.971 45.0165C156.692 45.0165 157.972 44.582 159.244 43.2503C159.362 43.1487 159.507 42.9303 159.691 42.9173C159.864 42.9303 160.167 43.101 160.266 43.1746C163.559 45.8207 166.047 51.1282 178.147 51.1909C179.848 51.1995 181.788 52.0125 183.37 53.4565C184.782 54.7624 185.608 56.7923 186.41 58.8526C187.62 61.9442 189.791 64.9514 193.081 68.298C193.261 68.4774 195.97 70.5831 196.186 70.7409C196.22 70.7625 196.419 71.2381 196.35 71.504C196.27 73.5103 195.978 79.3451 200.328 79.6089C201.392 79.6629 201.113 78.915 201.113 78.4004C201.111 77.3843 200.925 76.3747 201.461 75.3348C202.194 73.9038 199.906 73.2443 199.974 70.1506C200.021 67.8439 198.084 68.2373 197.1 66.4797C196.534 65.4615 196.03 64.9211 196.067 63.6757C196.287 56.667 194.575 52.0621 193.721 50.9315C193.056 50.0775 192.504 49.7382 193.114 49.3425C196.744 46.9449 197.567 44.7138 197.567 44.7138C199.498 40.1761 201.234 36.0316 203.627 34.2071C204.109 33.8308 205.346 32.9078 206.105 32.5445C208.338 31.4917 209.514 30.854 210.163 30.2226C211.189 29.2217 212 27.1355 211.016 25.8708C209.793 24.3098 207.676 25.5486 206.742 26.102C200.069 30.0628 199.085 37.0498 196.774 41.0624C194.93 44.2684 191.931 46.6228 189.251 46.8152C187.24 46.9643 185.074 46.5579 182.916 45.611C177.669 43.3108 174.798 40.3404 174.122 39.8151C172.712 38.7276 161.768 27.9851 152.902 27.5463C152.902 27.5463 151.802 25.3433 151.525 25.3066C150.877 25.2243 150.213 26.6231 149.738 26.7854C149.29 26.9344 148.538 25.2696 148.086 25.3432ZM109.055 89.4586C108.221 89.439 107.512 88.7537 107.512 87.9063L107.514 60.2513H98.3992V90.7361C98.3992 92.23 99.6097 93.4494 101.095 93.4494H117.026C118.522 93.4494 119.718 92.23 119.718 90.7361V60.2513H110.612L110.603 87.9063C110.603 88.7537 109.894 89.439 109.055 89.4586ZM139.572 60.2513H125.777C124.145 60.2513 122.816 61.5787 122.816 63.2283V93.4493H131.938V65.7276C131.945 64.878 132.632 64.2056 133.48 64.2056C134.332 64.2056 135.015 64.8628 135.034 65.7038V93.4494H144.121V65.7035C144.132 64.8626 144.815 64.2054 145.664 64.2054C146.508 64.2054 147.204 64.8778 147.21 65.7274V93.4494H156.333V63.2283C156.333 61.5787 155.002 60.2513 153.369 60.2513H139.572ZM86.2017 65.7858C86.2082 64.8626 85.4559 64.2054 84.6581 64.2054H83.1102V80.9968H84.6581C85.4624 80.9968 86.2084 80.3569 86.2017 79.4382V65.7858ZM92.3177 85.1066H83.1102V93.4494H74V60.2513H92.3762C94.0213 60.2513 95.3054 61.5874 95.3054 63.2413V82.1168C95.3054 83.7728 93.9716 85.1066 92.3177 85.1066ZM187.597 86.0254C185.766 86.0254 184.228 87.6079 184.228 89.5256C184.228 91.4497 185.766 93.0191 187.655 93.0191C189.529 93.0191 191.047 91.4497 191.047 89.5256C191.047 87.6036 189.529 86.0254 187.655 86.0254H187.597ZM191.7 89.5147C191.7 91.7695 189.893 93.6029 187.655 93.6029C185.394 93.6029 183.578 91.7827 183.578 89.5147C183.578 87.2901 185.394 85.4309 187.588 85.4309C189.893 85.4309 191.7 87.2341 191.7 89.5147Z" fill="black"/>
<path d="M187.233 89.2553C187.867 89.2553 188.2 89.0304 188.2 88.5809C188.2 88.1808 187.878 87.9755 187.261 87.9755H187.08V89.2553H187.233ZM189.566 91.8798H188.479L187.08 90.0184V91.8798H186.191V87.1734H187.125C188.394 87.1734 189.069 87.6534 189.069 88.57C189.069 89.1817 188.671 89.7245 188.115 89.8865L188.051 89.9104L189.566 91.8798ZM171.629 81.0033V65.7167C171.607 64.8713 170.926 64.2228 170.077 64.2228C169.236 64.2228 168.539 64.8972 168.533 65.7405V81.0033H171.629ZM171.629 93.4494V85.1153H168.533V93.4494H159.427V63.2283C159.427 61.5787 160.757 60.2513 162.389 60.2513H177.773C179.41 60.2513 180.739 61.5787 180.739 63.2283V93.4493L171.629 93.4494Z" fill="black"/>
</g>
<defs>
<clipPath id="clip0_101_313">
<rect width="138" height="73.9128" fill="white" transform="translate(74 22)"/>
</clipPath>
</defs>
</svg>
