<svg width="285" height="117" viewBox="0 0 285 117" fill="none" xmlns="http://www.w3.org/2000/svg">
<g clip-path="url(#clip0_101_220)">
<path d="M81.8821 68.9701C82.461 70.5065 83.2626 71.8202 84.2868 72.9111C85.3111 74.0022 86.5246 74.8371 87.9272 75.4161C89.3301 75.995 90.8552 76.2844 92.503 76.2844C94.1062 76.2844 95.6091 75.9838 97.0119 75.3825C98.4147 74.7813 99.6392 73.9352 100.686 72.8443C101.732 71.7532 102.545 70.4508 103.124 68.9367C103.703 67.4226 103.992 65.7305 103.992 63.8601V35.0034H111.006V81.7617H104.059V77.4199C102.5 79.0674 100.663 80.3366 98.5481 81.2274C96.4328 82.118 94.1507 82.5633 91.7014 82.5633C89.2075 82.5633 86.8808 82.129 84.7209 81.2607C82.5612 80.3923 80.6908 79.1567 79.11 77.5535C77.5293 75.9503 76.2822 74.0245 75.3694 71.7755C74.4564 69.5267 74 67.0219 74 64.2608V35.0034H81.0137V63.8601C81.0137 65.7305 81.3031 67.4337 81.8821 68.9701ZM123.096 35.0034V52.0368C124.654 50.4782 126.458 49.2426 128.506 48.3296C130.555 47.4166 132.781 46.9602 135.186 46.9602C137.68 46.9602 140.018 47.4277 142.2 48.3628C144.382 49.298 146.274 50.5672 147.877 52.1704C149.481 53.7736 150.75 55.6661 151.685 57.8481C152.62 60.0303 153.088 62.346 153.088 64.7952C153.088 67.2443 152.62 69.5489 151.685 71.7086C150.75 73.8684 149.481 75.75 147.877 77.3529C146.274 78.9561 144.382 80.2253 142.2 81.1605C140.018 82.0956 137.68 82.5631 135.186 82.5631C132.781 82.5631 130.544 82.1067 128.473 81.1937C126.402 80.2809 124.587 79.0451 123.029 77.4865V81.7616H116.349V35.0034H123.096ZM123.864 69.4042C124.465 70.8293 125.3 72.0762 126.369 73.1449C127.438 74.2137 128.684 75.0599 130.109 75.6833C131.535 76.3068 133.071 76.6185 134.719 76.6185C136.322 76.6185 137.836 76.3068 139.261 75.6833C140.686 75.0599 141.921 74.2139 142.968 73.1449C144.014 72.0763 144.849 70.8293 145.473 69.4042C146.096 67.9792 146.408 66.4429 146.408 64.7952C146.408 63.1475 146.096 61.6 145.473 60.1527C144.849 58.7054 144.014 57.4474 142.968 56.3787C141.921 55.3101 140.686 54.475 139.261 53.8738C137.836 53.2727 136.322 52.9719 134.719 52.9719C133.115 52.9719 131.601 53.2726 130.176 53.8738C128.751 54.4751 127.505 55.3101 126.436 56.3787C125.367 57.4474 124.521 58.7054 123.897 60.1527C123.274 61.6 122.962 63.1475 122.962 64.7952C122.962 66.4429 123.263 67.9792 123.864 69.4042ZM156.895 57.9151C157.785 55.7776 159.01 53.8962 160.568 52.2708C162.127 50.6454 163.975 49.3651 166.113 48.4299C168.25 47.4948 170.566 47.0273 173.06 47.0273C175.509 47.0273 177.78 47.4726 179.873 48.3631C181.966 49.2538 183.769 50.4896 185.283 52.0705C186.798 53.6513 187.978 55.5217 188.824 57.6814C189.67 59.8413 190.093 62.1903 190.093 64.7287V66.933H162.372C162.595 68.3135 163.04 69.5938 163.708 70.7737C164.376 71.9538 165.211 72.9781 166.213 73.8464C167.215 74.7149 168.35 75.3941 169.62 75.8837C170.889 76.3736 172.236 76.6186 173.661 76.6186C177.713 76.6186 180.986 74.9486 183.48 71.6087L188.356 75.2157C186.664 77.4868 184.571 79.2682 182.077 80.5595C179.584 81.8509 176.778 82.4966 173.661 82.4966C171.123 82.4966 168.751 82.0511 166.547 81.1606C164.343 80.2701 162.428 79.0231 160.802 77.4199C159.177 75.8166 157.897 73.9352 156.962 71.7755C156.026 69.6158 155.559 67.2666 155.559 64.7284C155.559 62.3238 156.004 60.0526 156.895 57.9151ZM166.28 55.2765C164.387 56.8574 163.129 58.9615 162.506 61.5889H183.28C182.701 58.9615 181.465 56.8574 179.572 55.2765C177.68 53.6957 175.464 52.9053 172.926 52.9053C170.388 52.9053 168.172 53.6957 166.28 55.2765ZM202.717 56.0446C201.292 57.6032 200.58 59.7184 200.58 62.3904V81.7619H193.833V47.6951H200.513V51.9033C201.359 50.5228 202.461 49.4318 203.819 48.6302C205.177 47.8285 206.792 47.4277 208.662 47.4277H211V53.7067H208.195C205.968 53.7068 204.142 54.486 202.717 56.0446Z" fill="#010202"/>
</g>
<defs>
<clipPath id="clip0_101_220">
<rect width="137" height="47.5664" fill="white" transform="translate(74 35)"/>
</clipPath>
</defs>
</svg>
