<svg width="285" height="117" viewBox="0 0 285 117" fill="none" xmlns="http://www.w3.org/2000/svg">
<g clip-path="url(#clip0_101_171)">
<path d="M147.608 43.816C147.608 45.9412 145.895 47.6524 143.77 47.6524C141.645 47.6524 139.934 45.9412 139.934 43.816C139.934 41.6908 141.587 39.9796 143.77 39.9796C145.955 40.0386 147.608 41.7504 147.608 43.816ZM131.788 51.5489V52.4936C131.788 52.4936 129.959 50.1313 126.063 50.1313C119.63 50.1313 114.612 55.0309 114.612 61.8186C114.612 68.5479 119.571 73.5058 126.063 73.5058C130.018 73.5058 131.788 71.0858 131.788 71.0858V72.0888C131.788 72.5612 132.143 72.9144 132.615 72.9144H137.395V50.7198H132.615C132.143 50.7216 131.788 51.1356 131.788 51.5489ZM131.788 65.7735C130.904 67.0725 129.132 68.1941 127.008 68.1941C123.23 68.1941 120.337 65.833 120.337 61.8186C120.337 57.8047 123.23 55.4437 127.008 55.4437C129.074 55.4437 130.963 56.6242 131.788 57.8637V65.7735ZM140.937 50.7216H146.603V72.9161H140.937V50.7216ZM225.581 50.1308C221.685 50.1308 219.855 52.493 219.855 52.493V40.0386H214.189V72.9161H218.971C219.443 72.9161 219.796 72.5028 219.796 72.0894V71.0864C219.796 71.0864 221.626 73.5064 225.521 73.5064C231.956 73.5064 236.972 68.5496 236.972 61.8203C236.972 55.091 231.956 50.1308 225.581 50.1308ZM224.637 68.1345C222.452 68.1345 220.741 67.0141 219.855 65.7145V57.8047C220.741 56.6242 222.629 55.3847 224.637 55.3847C228.414 55.3847 231.306 57.7457 231.306 61.7596C231.306 65.7735 228.415 68.1345 224.637 68.1345ZM211.238 59.7536V72.9751H205.571V60.4022C205.571 56.7433 204.39 55.2668 201.205 55.2668C199.494 55.2668 197.722 56.1525 196.599 57.4515V72.9167H190.934V50.7222H195.419C195.891 50.7222 196.245 51.1356 196.245 51.5489V52.4936C197.898 50.7812 200.082 50.1313 202.265 50.1313C204.745 50.1313 206.811 50.8407 208.464 52.2571C210.47 53.9099 211.238 56.0345 211.238 59.7536ZM177.179 50.1308C173.284 50.1308 171.454 52.493 171.454 52.493V40.0386H165.788V72.9161H170.568C171.041 72.9161 171.395 72.5028 171.395 72.0894V71.0864C171.395 71.0864 173.225 73.5064 177.12 73.5064C183.554 73.5064 188.571 68.5496 188.571 61.8203C188.63 55.0905 183.613 50.1308 177.179 50.1308ZM176.234 68.1345C174.051 68.1345 172.34 67.0141 171.454 65.7145V57.8047C172.34 56.6242 174.228 55.3847 176.234 55.3847C180.013 55.3847 182.905 57.7457 182.905 61.7596C182.905 65.7735 180.013 68.1345 176.234 68.1345ZM160.888 50.1308C162.599 50.1308 163.485 50.4268 163.485 50.4268V55.6795C163.485 55.6795 158.763 54.0857 155.812 57.4509V72.9745H150.145V50.7216H154.927C155.399 50.7216 155.752 51.135 155.752 51.5483V52.493C156.816 51.2529 159.118 50.1308 160.888 50.1308ZM102.04 70.9089C101.745 70.2007 101.45 69.4336 101.155 68.7837C100.682 67.7218 100.21 66.7175 99.7974 65.7735L99.7384 65.7145C95.665 56.8601 91.2979 47.8888 86.6932 39.0356L86.5163 38.6806C86.032 37.7622 85.56 36.8373 85.1005 35.9062C84.5096 34.843 83.92 33.7226 82.9753 32.6595C81.0866 30.2984 78.3712 28.9994 75.4795 28.9994C72.5276 28.9994 69.8717 30.2985 67.9246 32.541C67.039 33.603 66.3891 34.7245 65.7995 35.7877C65.3388 36.7182 64.8668 37.643 64.3837 38.5621L64.2062 38.917C59.661 47.7703 55.2344 56.7421 51.1615 65.596L51.102 65.7133C50.6892 66.6592 50.2163 67.6622 49.744 68.7236C49.4491 69.3734 49.1543 70.0816 48.8595 70.8488C48.0917 73.0323 47.8553 75.0985 48.1513 77.2243C48.8005 81.6515 51.7512 85.3688 55.8246 87.0228C57.3595 87.6726 58.9534 87.9674 60.6057 87.9674C61.078 87.9674 61.6677 87.9085 62.1406 87.8489C64.0888 87.613 66.0955 86.9644 68.0437 85.8428C70.4637 84.4848 72.7658 82.5377 75.3627 79.7044C77.9596 82.5377 80.3206 84.4848 82.6817 85.8428C84.6305 86.9644 86.6366 87.613 88.5842 87.8489C89.0566 87.909 89.6474 87.9674 90.1197 87.9674C91.7726 87.9674 93.4248 87.6726 94.9002 87.0228C99.0326 85.3688 101.924 81.5925 102.574 77.2243C103.043 75.1586 102.807 73.0936 102.04 70.9089ZM75.4199 73.9781C72.2322 69.9643 70.166 66.1868 69.4584 63.0003C69.1635 61.6423 69.104 60.4618 69.2815 59.3992C69.3988 58.4545 69.7538 57.6278 70.2261 56.9196C71.3477 55.3269 73.2364 54.3227 75.4205 54.3227C77.6052 54.3227 79.5529 55.2674 80.6155 56.9196C81.0878 57.6278 81.4416 58.4551 81.5607 59.3992C81.737 60.4623 81.6781 61.7012 81.3832 63.0003C80.6727 66.1279 78.6065 69.9059 75.4199 73.9781ZM98.9701 76.7525C98.5573 79.8217 96.4911 82.4788 93.5994 83.6593C92.183 84.2489 90.6475 84.4264 89.1138 84.2489C87.6384 84.0715 86.1619 83.5991 84.6282 82.7146C82.503 81.5329 80.3784 79.7044 77.8989 76.9884C81.7942 72.2079 84.1553 67.8391 85.0409 63.9443C85.4543 62.114 85.5139 60.4618 85.3358 58.9263C85.1005 57.4509 84.5686 56.0929 83.7425 54.9124C81.9116 52.2553 78.8417 50.7216 75.4193 50.7216C71.9969 50.7216 68.9271 52.3155 67.0973 54.9124C66.2712 56.0929 65.7393 57.4509 65.5034 58.9263C65.2676 60.4618 65.326 62.173 65.7983 63.9443C66.6834 67.8391 69.1034 72.2663 72.9398 77.0474C70.5198 79.7628 68.3356 81.5931 66.2105 82.7736C64.6756 83.6593 63.2008 84.1316 61.7255 84.3079C60.1322 84.4854 58.5967 84.249 57.2393 83.7183C54.3475 82.5378 52.2813 79.8807 51.8686 76.8115C51.6917 75.3361 51.809 73.8608 52.3998 72.2079C52.5762 71.6171 52.8722 71.0274 53.167 70.3192C53.5804 69.3746 54.0515 68.3704 54.5244 67.3674L54.584 67.25C58.6562 58.4545 63.0239 49.4827 67.5691 40.7474L67.746 40.3924C68.2189 39.5079 68.6912 38.5632 69.1629 37.6776C69.6353 36.7329 70.166 35.8472 70.8158 35.0795C72.0553 33.6643 73.7075 32.8959 75.5378 32.8959C77.3682 32.8959 79.0204 33.6643 80.2599 35.0795C80.9097 35.849 81.4404 36.7347 81.9127 37.6776C82.3857 38.5632 82.858 39.5079 83.3291 40.3924L83.5066 40.7474C87.9825 49.519 92.2921 58.3745 96.4333 67.309V67.368C96.9062 68.3138 97.319 69.3752 97.7913 70.321C98.0862 71.028 98.3816 71.6177 98.5585 72.2085C99.0296 73.7417 99.2065 75.2182 98.9701 76.7525Z" fill="#FF5A5F"/>
</g>
<defs>
<clipPath id="clip0_101_171">
<rect width="189" height="58.968" fill="white" transform="translate(48 29)"/>
</clipPath>
</defs>
</svg>
